<svg xmlns="http://www.w3.org/2000/svg" viewBox="0 0 68.85 185.14"><defs><style>.cls-1{fill:#c0daff;stroke:#c0daff;stroke-miterlimit:10;stroke-width:0.1px;}</style></defs><title>Ресурс 1</title><g id="Слой_2" data-name="Слой 2"><g id="Layer_1" data-name="Layer 1"><path class="cls-1" d="M59.49,100.92a2.47,2.47,0,0,0-3.29,3.67l2.44,2.34a1.72,1.72,0,0,0,1,.46l1.23,1.18a1,1,0,0,0,1.18.1l.44.41a1.33,1.33,0,0,1,.05,1.85,1.3,1.3,0,0,1-1.85,0l-.44-.41a.94.94,0,0,0-.15-1.18l-1.23-1.18a1.73,1.73,0,0,0-.51-1l-2.44-2.34a2.47,2.47,0,0,0-3.54,3.44,1,1,0,0,0,.15,1.21L54.07,111a2.19,2.19,0,0,0,2,.56l1,1a1,1,0,0,0,1.34,0L60,110.83l.41.41a1.67,1.67,0,0,0,2.36-.05,1.7,1.7,0,0,0-.05-2.39l-.41-.39,1.59-1.67a1,1,0,0,0,0-1.34l-1-1a2.24,2.24,0,0,0-.64-2L60.67,101A.9.9,0,0,0,59.49,100.92Zm-1.34,11.32a.57.57,0,0,1-.8,0l-.87-.85a2.23,2.23,0,0,0,.72-.49l.08-.08.74.72a.18.18,0,1,0,.26-.26l-.9-.85a.17.17,0,0,0-.26,0l-.21.21a1.82,1.82,0,0,1-2.57.05l-1.54-1.46a.58.58,0,0,1,.8-.85l1,1a.17.17,0,0,0,.26,0,1.29,1.29,0,0,1,.92-.41,1.32,1.32,0,0,1,1,.39.18.18,0,0,0,.26-.26,1.69,1.69,0,0,0-2.26-.1l-.87-.85a1,1,0,0,0-1.21-.1,2.1,2.1,0,0,1,.05-2.85,2.08,2.08,0,0,1,3-.05l2.44,2.34a1.23,1.23,0,0,1,.39.8v0a1.31,1.31,0,0,1-.36,1l-.54.56a.17.17,0,0,0,0,.26c.08.05.21.08.26,0l.28-.31.74.72a.17.17,0,0,0,.26,0c.05-.08.08-.21,0-.26l-.74-.72a1.56,1.56,0,0,0,.44-.9l1,.92a.57.57,0,0,1,0,.8Zm3.83-9.5a1.82,1.82,0,0,1,.05,2.57l-.21.21a.17.17,0,0,0,0,.26l.9.85a.17.17,0,0,0,.26,0c.05-.08.08-.21,0-.26l-.74-.72.08-.08a2.26,2.26,0,0,0,.46-.74l.87.85a.57.57,0,0,1,0,.8l-1.75,1.8a.57.57,0,0,1-.8,0l-1-.92a1.65,1.65,0,0,0,.87-.49l.74.72a.17.17,0,0,0,.26,0c.05-.08.08-.21,0-.26l-.74-.72.28-.31a.17.17,0,0,0,0-.26c-.08-.05-.21-.08-.26,0l-.54.56a1.41,1.41,0,0,1-1,.41h0a1.34,1.34,0,0,1-.8-.36l-2.44-2.34a2.08,2.08,0,0,1-.05-3,2.1,2.1,0,0,1,2.82-.18.94.94,0,0,0,.15,1.18l.87.82a1.72,1.72,0,0,0,.18,2.26.18.18,0,0,0,.26-.26,1.29,1.29,0,0,1-.41-.92,1.41,1.41,0,0,1,.36-1,.17.17,0,0,0,0-.26l-1-1a.58.58,0,0,1,.8-.85L62,102.74Z"/><path class="cls-1" d="M12.43,94H11.2a1.28,1.28,0,0,0,.36-.9,1.2,1.2,0,0,0-.39-.9,1.31,1.31,0,0,0-.9-.39,1.05,1.05,0,0,0-.28,0,1.05,1.05,0,0,0,0-.28,1.28,1.28,0,0,0-2.36-.69,1.3,1.3,0,0,0-1.08-.59,1.27,1.27,0,0,0-1.28,1.28,1.05,1.05,0,0,0,0,.28,1.05,1.05,0,0,0-.28,0,1.2,1.2,0,0,0-.9.39,1.31,1.31,0,0,0-.39.9,1.33,1.33,0,0,0,.36.9H2.88a.2.2,0,0,0-.21.21v2a.2.2,0,0,0,.21.21h.21v6.16a.2.2,0,0,0,.21.21H12a.2.2,0,0,0,.21-.21V96.42h.21a.2.2,0,0,0,.21-.21v-2A.25.25,0,0,0,12.43,94ZM9.66,92.5a.83.83,0,0,1,.62-.26.87.87,0,0,1,.62,1.49.83.83,0,0,1-.62.26H8.11Zm-1.8-.9a.9.9,0,0,1,1.8,0,1,1,0,0,1-.26.64L7.88,93.75l0-2.16Zm-.18,7.27a.2.2,0,0,0,.21-.21V94.42h.8v5.39l-.9-.51a.28.28,0,0,0-.21,0l-.9.51V94.42h.8v4.24A.2.2,0,0,0,7.68,98.86ZM4.39,92.5A.83.83,0,0,1,5,92.24a.9.9,0,0,1,.62.26.2.2,0,1,0,.28-.28.9.9,0,1,1,1.54-.64v2.16l-1-1a.2.2,0,1,0-.28.28l1,1H5a.9.9,0,0,1-.62-.26.83.83,0,0,1-.26-.62A1,1,0,0,1,4.39,92.5ZM12.25,96H9.68a.21.21,0,1,0,0,.41h2.18v6H3.47v-6H5.68a.21.21,0,1,0,0-.41H3.08V94.42H6.29v5.73a.19.19,0,0,0,.1.18.28.28,0,0,0,.21,0l1.1-.62,1.1.62a.22.22,0,0,0,.21,0,.22.22,0,0,0,.1-.18V94.42H12.3L12.25,96Z"/><path class="cls-1" d="M32.63,46.12a.24.24,0,0,0-.31-.15l-.51.18v-.54a.26.26,0,0,0-.26-.26.24.24,0,0,0-.26.26v.54L30.79,46a.24.24,0,0,0-.15.46l.51.18-.33.44a.28.28,0,0,0,.05.36.36.36,0,0,0,.15.05.23.23,0,0,0,.21-.1l.33-.44.33.44a.23.23,0,0,0,.21.1.37.37,0,0,0,.15-.05A.27.27,0,0,0,32.3,47L32,46.61l.51-.18A.28.28,0,0,0,32.63,46.12Z"/><path class="cls-1" d="M36.92,60.86l-.69-1.23a.93.93,0,0,0,.28-.67.92.92,0,0,0-.92-.92.71.71,0,0,0-.23,0l-.49-.85h.59a.27.27,0,0,0,.23-.13.23.23,0,0,0,0-.26l-.87-1.57a.25.25,0,1,0-.44.23L35,56.67h-.59a.27.27,0,0,0-.23.13.23.23,0,0,0,0,.26l.69,1.23a1,1,0,0,0-.26.64.92.92,0,0,0,.92.92.57.57,0,0,0,.21,0l.49.85H26.81l.49-.85a.57.57,0,0,0,.21,0,.93.93,0,0,0,.67-1.57l.69-1.23a.23.23,0,0,0,0-.26.27.27,0,0,0-.23-.13H28L30.09,53a.23.23,0,0,0,0-.26.27.27,0,0,0-.23-.13h-.59l2.26-4,2.26,4H33.2a.27.27,0,0,0-.23.13A.23.23,0,0,0,33,53l.87,1.57a.25.25,0,1,0,.44-.23l-.67-1.18h.59a.27.27,0,0,0,.23-.13.23.23,0,0,0,0-.26L31.74,48a.27.27,0,0,0-.46,0l-2.7,4.8a.23.23,0,0,0,0,.26.27.27,0,0,0,.23.13h.59l-2.05,3.65a.23.23,0,0,0,0,.26.27.27,0,0,0,.23.13h.59l-.49.85a.71.71,0,0,0-.23,0,.92.92,0,0,0-.92.92.93.93,0,0,0,.28.67l-.69,1.23a.23.23,0,0,0,0,.26.27.27,0,0,0,.23.13H36.72a.27.27,0,0,0,.23-.13A.3.3,0,0,0,36.92,60.86Zm-1.34-1.46A.41.41,0,1,1,36,59,.41.41,0,0,1,35.59,59.39Zm-8.11-.85a.41.41,0,1,1-.41.41A.41.41,0,0,1,27.47,58.55Z"/><path class="cls-1" d="M31.53,58a.92.92,0,1,0,.92.92A.92.92,0,0,0,31.53,58Zm0,1.36a.41.41,0,1,1,.41-.41A.41.41,0,0,1,31.53,59.39Z"/><path class="cls-1" d="M31.53,54.39a.92.92,0,1,0,.92.92A.92.92,0,0,0,31.53,54.39Zm0,1.34a.41.41,0,1,1,.41-.41A.41.41,0,0,1,31.53,55.72Z"/><path class="cls-1" d="M31.53,50.72a.92.92,0,1,0,.92.92A.94.94,0,0,0,31.53,50.72Zm0,1.36a.41.41,0,1,1,.41-.41A.41.41,0,0,1,31.53,52.08Z"/><path class="cls-1" d="M25.91,3.11l-.41-.28a0,0,0,0,0-.08,0l-.77.26L24.42,3a.11.11,0,0,0-.13,0,.11.11,0,0,0,0,.13l.1.05-.67.39-.41-.23V3l.41-.23.21.13a.11.11,0,0,0,.13,0,.11.11,0,0,0,0-.13L24,2.72l.54-.31.64.18h0c.05,0,.08,0,.1-.08s0-.1-.08-.13l-.46-.13.33-.21.33.08h0c.05,0,.08,0,.1-.08s0-.1-.08-.13l-.13,0,.26-.15c.05,0,.08-.08,0-.13s-.08-.08-.13,0l-.26.15,0-.13c0-.05,0-.1-.08-.13s-.1,0-.13.08L25,1.9l-.33.21.13-.46c0-.05,0-.1-.08-.13s-.1,0-.13.08l-.18.64-.54.31V1.77l.59-.54a.09.09,0,0,0,0-.08l0-.49s0-.05-.05-.08a.08.08,0,0,0-.1,0l-.44.21s-.05.05-.05.08l-.15.8L23,2.05V1.44l.49-.49a.1.1,0,0,0,0-.15.1.1,0,0,0-.15,0L23,1.13V.74l.23-.23a.1.1,0,0,0,0-.15.1.1,0,0,0-.15,0l-.1.1V.15a.1.1,0,0,0-.21,0V.46l-.1-.1a.1.1,0,0,0-.15,0,.1.1,0,0,0,0,.15l.23.23v.39L22.37.79a.1.1,0,0,0-.15,0,.1.1,0,0,0,0,.15l.49.49v.62l-.56-.44L22,.82s0-.05-.05-.08L21.49.56a.08.08,0,0,0-.1,0s0,.05-.05.08l0,.49a.09.09,0,0,0,0,.08l.59.54v.77l-.54-.31-.18-.64a.11.11,0,0,0-.21.05l.13.46-.33-.21-.08-.33a.11.11,0,0,0-.21.05l0,.13-.26-.15a.11.11,0,0,0-.13,0,.11.11,0,0,0,0,.13l.26.15-.13,0a.14.14,0,0,0-.08.13c0,.05.05.08.1.08h0L20.7,2l.33.21-.41.13a.14.14,0,0,0-.08.13c0,.05.05.08.1.08h0l.64-.18.54.31-.67.39-.77-.26h-.08l-.41.28s-.05.05-.05.08,0,.08.05.08l.41.28s0,0,.05,0h0l.77-.26.67.39L21.31,4l-.64-.18c-.05,0-.1,0-.13.08s0,.1.08.13l.46.13-.33.21-.33-.08c-.05,0-.1,0-.13.08s0,.1.08.13l.13,0-.26.15c-.05,0-.08.08,0,.13s.05.05.08.05,0,0,.05,0l.26-.15,0,.13c0,.05,0,.1.08.13h0c.05,0,.08,0,.1-.08l.08-.33.33-.21-.13.46c0,.05,0,.1.08.13h0c.05,0,.08,0,.1-.08l.18-.64L22,3.88v.77l-.62.51a.09.09,0,0,0,0,.08l0,.49s0,.05.05.08,0,0,.05,0h.05L22,5.62s.05-.05.05-.08l.15-.8.67-.39V5l-.49.46a.11.11,0,0,0,.15.15l.33-.33v.39l-.23.23a.11.11,0,0,0,.15.15l.1-.1v.31a.1.1,0,0,0,.21,0V5.93l.1.1a.13.13,0,0,0,.15,0,.1.1,0,0,0,0-.15l-.23-.23V5.26l.33.33a.13.13,0,0,0,.15,0,.1.1,0,0,0,0-.15L23.08,5V4.34l.67.39.15.8s0,.05.05.08l.44.21h.05s0,0,.05,0,.05-.05.05-.08l0-.49a.09.09,0,0,0,0-.08L24,4.6V3.82l.54.31.18.64c0,.05.05.08.1.08h0a.14.14,0,0,0,.08-.13l-.13-.46.33.21.08.33c0,.05.05.08.1.08h0a.14.14,0,0,0,.08-.13l0-.13.26.15s0,0,.05,0,.08,0,.08-.05a.11.11,0,0,0,0-.13l-.26-.15.13,0a.14.14,0,0,0,.08-.13.14.14,0,0,0-.13-.08l-.33.08-.33-.21L25.32,4a.14.14,0,0,0,.08-.13.14.14,0,0,0-.13-.08L24.63,4l-.54-.31.67-.39.77.26h0s.05,0,.05,0L26,3.21s.05-.05.05-.08S25.93,3.13,25.91,3.11ZM24,.92l.26-.13,0,.28-.39.33Zm-2.52.15,0-.28.26.13.1.49Zm-1.1,2.26-.23-.15L20.41,3l.46.15ZM21.8,5.44l-.26.13,0-.28L21.9,5ZM23,2.26l.67-.39v.77l-.41.23L23,2.72V2.26Zm-.18,0v.46l-.26.15-.41-.23V1.87Zm-.77,1.31-.67-.39.67-.39.41.23v.28Zm.1,1V3.75l.41-.23.26.15v.46h0Zm.77-1-.26-.15V3.05l.26-.15.26.15v.28Zm.08.64V3.65l.26-.15.41.23v.77Zm1.31,1.16,0,.28L24,5.44,23.93,5Zm1.13-2L25,3.18,25.45,3l.23.15Z"/><path class="cls-1" d="M52.1,21.11l-.77-.51a.17.17,0,0,0-.15,0l-1.44.49-.41-.23a.19.19,0,1,0-.18.33l.21.1L48.1,22l-.77-.44V21l.77-.44.39.23a.19.19,0,1,0,.18-.33l-.21-.13,1-.56,1.23.33h.05a.19.19,0,0,0,.18-.13.18.18,0,0,0-.13-.23l-.87-.23.64-.39.62.15h.05a.19.19,0,0,0,.18-.13.18.18,0,0,0-.13-.23L51,18.85l.49-.28a.19.19,0,0,0-.18-.33l-.49.28.08-.26a.19.19,0,1,0-.36-.1l-.15.62-.64.39.23-.87a.19.19,0,1,0-.36-.1l-.33,1.23-1,.56V18.51l1.13-1c.05-.05.08-.1.05-.15l-.05-.92a.21.21,0,0,0-.1-.15.22.22,0,0,0-.18,0l-.82.41a.17.17,0,0,0-.1.13l-.31,1.49-1.28.74V17.9l.92-.9a.18.18,0,1,0-.26-.26l-.64.64v-.74l.46-.46a.18.18,0,0,0-.26-.26l-.18.18v-.56a.18.18,0,1,0-.36,0v.56l-.18-.18a.18.18,0,1,0-.26.26l.46.46v.74l-.64-.64a.18.18,0,0,0-.26.26l.9.9v1.16l-1.28-.74-.31-1.49a.17.17,0,0,0-.1-.13l-.82-.41a.22.22,0,0,0-.18,0,.17.17,0,0,0-.1.15l-.05.92a.28.28,0,0,0,.05.15l1.13,1V20l-1-.56-.33-1.23a.19.19,0,1,0-.36.1l.23.87-.64-.39-.15-.62a.19.19,0,1,0-.36.1l.08.26-.49-.28a.19.19,0,0,0-.18.33l.49.28-.26.08a.18.18,0,0,0-.13.23.19.19,0,0,0,.18.13h.05l.62-.15.64.39-.87.23a.18.18,0,0,0-.13.23.19.19,0,0,0,.18.13h.05l1.23-.33,1,.56-1.28.72-1.44-.49a.16.16,0,0,0-.15,0l-.77.51a.19.19,0,0,0,0,.31l.77.51a.15.15,0,0,0,.1,0h.05l1.44-.49,1.28.72-1,.56-1.23-.33a.19.19,0,0,0-.1.36l.87.23-.64.39-.62-.15a.19.19,0,0,0-.1.36l.26.08-.49.28a.18.18,0,0,0-.08.26.21.21,0,0,0,.15.1.15.15,0,0,0,.1,0l.49-.28-.08.26a.18.18,0,0,0,.13.23h.05a.19.19,0,0,0,.18-.13l.15-.62.64-.39-.23.87a.18.18,0,0,0,.13.23h.05a.19.19,0,0,0,.18-.13l.33-1.23,1-.56V24l-1.13,1c-.05.05-.08.1-.05.15l.05.92a.21.21,0,0,0,.1.15s.05,0,.1,0a.09.09,0,0,0,.08,0l.82-.41a.17.17,0,0,0,.1-.13l.31-1.49,1.28-.74v1.16l-.9.9a.18.18,0,1,0,.26.26l.64-.64v.74l-.46.46a.18.18,0,0,0,.26.26l.18-.18V27a.18.18,0,1,0,.36,0v-.56l.18.18a.19.19,0,0,0,.26,0,.17.17,0,0,0,0-.26l-.46-.46v-.74l.64.64a.19.19,0,0,0,.26,0,.17.17,0,0,0,0-.26l-.9-.9V23.47l1.28.74.31,1.49a.17.17,0,0,0,.1.13l.82.41a.09.09,0,0,0,.08,0,.15.15,0,0,0,.1,0,.17.17,0,0,0,.1-.15l.05-.92a.28.28,0,0,0-.05-.15l-1.13-1V22.55l1,.56.33,1.23a.19.19,0,0,0,.18.13h.05a.18.18,0,0,0,.13-.23l-.23-.87.64.39.15.62a.19.19,0,0,0,.18.13h.05a.18.18,0,0,0,.13-.23L50.87,24l.49.28s.05,0,.1,0a.14.14,0,0,0,.15-.1.18.18,0,0,0-.08-.26L51,23.67l.26-.08a.19.19,0,0,0-.1-.36l-.62.15L49.94,23l.87-.23a.19.19,0,0,0-.1-.36l-1.23.33-1-.56,1.28-.72L51.2,22h.05a.15.15,0,0,0,.1,0l.77-.51a.18.18,0,0,0,.08-.15A.24.24,0,0,0,52.1,21.11ZM48.58,17l.49-.23,0,.54-.69.62Zm-4.75.31,0-.54.49.23.18.92Zm-2.11,4.26-.46-.31.46-.31.9.31Zm2.62,4-.49.23,0-.54.69-.62Zm2.31-6,1.26-.72v1.44l-.77.44-.46-.28,0-.87Zm-.39,0v.9l-.46.28L45,20.23V18.8ZM44.83,22l-1.26-.72,1.26-.72.77.44v.54ZM45,23.75V22.31l.77-.44.46.26V23h0Zm1.44-2L46,21.52V21l.46-.28.46.28v.54ZM46.66,23v-.9l.46-.28.77.44v1.44Zm2.44,2.18,0,.54-.49-.23-.18-.92Zm2.11-3.65-.9-.31.9-.31.46.31Z"/><path class="cls-1" d="M39.8,33.38h-.59a.62.62,0,0,0,.18-.44.61.61,0,0,0-.62-.62.19.19,0,0,0-.13,0c0-.05,0-.08,0-.13a.62.62,0,0,0-.62-.62.59.59,0,0,0-.51.28.59.59,0,0,0-.51-.28.62.62,0,0,0-.62.62.19.19,0,0,0,0,.13c-.05,0-.08,0-.13,0a.62.62,0,0,0-.44,1.05h-.59a.11.11,0,0,0-.1.1v1a.11.11,0,0,0,.1.1h.1v3a.11.11,0,0,0,.1.1h4.19a.11.11,0,0,0,.1-.1v-3h.1a.11.11,0,0,0,.1-.1v-1C39.9,33.43,39.85,33.38,39.8,33.38Zm-1.31-.72a.44.44,0,1,1,.31.74h-1Zm-.87-.44a.41.41,0,0,1,.82,0,.47.47,0,0,1-.13.31l-.72.72v-1Zm-.08,3.47a.11.11,0,0,0,.1-.1v-2H38v2.57l-.44-.26a.08.08,0,0,0-.1,0l-.44.26V33.56h.39v2A.11.11,0,0,0,37.54,35.69Zm-1.57-3a.43.43,0,0,1,.62,0,.09.09,0,1,0,.13-.13.43.43,0,0,1-.13-.31.41.41,0,0,1,.82,0v1L37,32.79a.09.09,0,0,0-.13.13l.46.46h-1a.47.47,0,0,1-.31-.13.43.43,0,0,1-.13-.31A.39.39,0,0,1,36,32.66Zm3.75,1.67H38.49a.1.1,0,1,0,0,.21h1v2.85h-4V34.54h1.05a.1.1,0,0,0,0-.21H35.36v-.77h1.52v2.72s0,.08.05.08a.08.08,0,0,0,.1,0l.51-.31.51.31h.1s.05-.05.05-.08V33.56h1.52v.77Z"/><path class="cls-1" d="M26.47,155a.15.15,0,1,0,0,.31,1.1,1.1,0,0,1,1.1,1.1.79.79,0,0,1,0,.26H24.09v-.54a1.44,1.44,0,0,0,1.28-1.41v-1.85h.15a.15.15,0,1,0,0-.31h-1a.8.8,0,0,0-.8.8.15.15,0,0,0,.31,0,.49.49,0,0,1,.49-.49h.49v1.85a1.1,1.1,0,0,1-1.1,1.1H19.69a1.1,1.1,0,0,1-1.1-1.1v-3.54a2.9,2.9,0,0,1,2.75,2.9v.64a.49.49,0,0,0,.49.49h1.8a.49.49,0,0,0,.49-.49v-.74a.15.15,0,0,0-.31,0v.74a.17.17,0,0,1-.15.15h-1.8a.17.17,0,0,1-.15-.15V154a3.24,3.24,0,0,0-3.24-3.24h-.31a.15.15,0,1,0,0,.31h.15v3.54a1.42,1.42,0,0,0,1.28,1.41v1.39H18.15a.15.15,0,1,0,0,.31h8.37A1.44,1.44,0,0,0,28,156.33,1.51,1.51,0,0,0,26.47,155Zm-2.7,2.54H19.85V157h3.93v.54Zm0-.85H19.85v-.54h3.93v.54Zm2.7.85H24.09V157h3.34A1.06,1.06,0,0,1,26.47,157.52Z"/><path class="cls-1" d="M59.49,119.87a.18.18,0,0,0,.26.26,1.27,1.27,0,0,1,1.78.1.7.7,0,0,1,.16.26l-2.94,2.62-.42-.45a1.63,1.63,0,0,0,0-2.16l-1.39-1.58.13-.13a.18.18,0,0,0-.26-.26l-.81.71a.88.88,0,0,0-.06,1.26.17.17,0,0,0,.26,0c.06-.1.1-.19,0-.26a.56.56,0,0,1,0-.78l.42-.36L58,120.68a1.27,1.27,0,0,1-.1,1.78l-3.59,3.2a1.27,1.27,0,0,1-1.78-.1l-2.68-3a3.28,3.28,0,0,1,4.52.39l.48.55a.53.53,0,0,0,.78,0l1.52-1.36a.53.53,0,0,0,0-.78l-.55-.61a.18.18,0,1,0-.26.26l.55.61a.2.2,0,0,1,0,.26l-1.52,1.36a.2.2,0,0,1-.26,0l-.48-.55a3.64,3.64,0,0,0-5.17-.29l-.26.23a.18.18,0,0,0,.26.26l.13-.13,2.68,3a1.64,1.64,0,0,0,2.13.26l1,1.16-1.23,1.07a.18.18,0,1,0,.26.26l7.11-6.3a1.6,1.6,0,0,0,.13-2.29A1.63,1.63,0,0,0,59.49,119.87Zm-.39,4.2L55.78,127l-.39-.45,3.33-2.94.39.45Zm-.61-.71-3.33,2.94-.39-.45,3.33-2.94.39.45ZM61.4,122l-2,1.81-.39-.45,2.81-2.52A1.15,1.15,0,0,1,61.4,122Z"/><path class="cls-1" d="M66.46,33.19a.16.16,0,0,0,.23.23,1.08,1.08,0,0,1,1.54.08.78.78,0,0,1,.15.23L65.86,36l-.34-.38a1.43,1.43,0,0,0,0-1.88l-1.2-1.35.11-.11a.16.16,0,1,0-.23-.23l-.71.6a.77.77,0,0,0-.08,1.09.16.16,0,1,0,.23-.23.43.43,0,0,1,0-.64l.34-.3,1.2,1.35a1.08,1.08,0,0,1-.08,1.54l-3.08,2.74a1.08,1.08,0,0,1-1.54-.08l-2.29-2.59a2.86,2.86,0,0,1,3.9.34l.41.45a.43.43,0,0,0,.64,0l1.31-1.16a.43.43,0,0,0,0-.64L64.06,34a.16.16,0,0,0-.23.23l.49.53c.08.08,0,.15,0,.23L63,36.16c-.08.08-.15,0-.23,0l-.41-.45a3.11,3.11,0,0,0-4.43-.26l-.23.19a.16.16,0,0,0,.23.23l.11-.11,2.29,2.59a1.44,1.44,0,0,0,1.84.23l.9,1L62,40.51a.16.16,0,0,0,.23.23l6.08-5.4a1.37,1.37,0,0,0,.11-2A1.46,1.46,0,0,0,66.46,33.19Zm-.34,3.6-2.85,2.55L62.93,39l2.85-2.55.34.38Zm-.53-.6-2.85,2.55-.34-.38,2.85-2.55.34.38Zm2.51-1.13-1.73,1.54L66,36.23l2.44-2.14A1.24,1.24,0,0,1,68.11,35.07Z"/><path class="cls-1" d="M21.83,72.52,21.06,72a.17.17,0,0,0-.15,0l-1.44.49-.41-.23a.19.19,0,1,0-.18.33l.21.1-1.26.72L17,73v-.54l.77-.44.39.23a.19.19,0,1,0,.18-.33l-.21-.13,1-.56,1.23.33h.05a.19.19,0,0,0,.18-.13.18.18,0,0,0-.13-.23l-.87-.23.64-.39.62.15H21a.19.19,0,0,0,.18-.13.18.18,0,0,0-.13-.23l-.26-.08.49-.28a.19.19,0,1,0-.18-.33l-.49.28.08-.26a.19.19,0,0,0-.36-.1l-.15.62-.64.39.23-.87a.19.19,0,0,0-.36-.1L19,70.82l-1,.56V69.92l1.13-1c.05-.05.08-.1.05-.15l-.05-.92a.21.21,0,0,0-.1-.15.22.22,0,0,0-.18,0l-.82.41a.17.17,0,0,0-.1.13l-.31,1.49-1.28.74V69.31l.9-.9a.18.18,0,1,0-.26-.26l-.64.64V68l.46-.46a.18.18,0,1,0-.26-.26l-.18.18v-.56a.18.18,0,1,0-.36,0v.56l-.18-.18a.18.18,0,1,0-.26.26L16,68v.74l-.64-.64a.18.18,0,1,0-.26.26l.9.9v1.16l-1.28-.74-.31-1.49a.17.17,0,0,0-.1-.13l-.82-.41a.22.22,0,0,0-.18,0,.17.17,0,0,0-.1.15l-.05.92a.28.28,0,0,0,.05.15l1.13,1v1.46l-1-.56L13,69.59a.19.19,0,0,0-.36.1l.23.87-.64-.39-.15-.62a.19.19,0,0,0-.36.1l.08.26-.49-.28a.19.19,0,1,0-.18.33l.49.28-.26.08a.18.18,0,0,0-.13.23.19.19,0,0,0,.18.13h.05l.62-.15.64.39-.87.23a.18.18,0,0,0-.13.23.19.19,0,0,0,.18.13H12l1.23-.33,1,.56-1.28.72L11.5,72a.16.16,0,0,0-.15,0l-.77.51a.19.19,0,0,0,0,.31l.77.51a.15.15,0,0,0,.1,0h.05l1.44-.49,1.28.72-1,.56L12,73.83a.19.19,0,1,0-.1.36l.87.23-.64.39-.62-.15a.19.19,0,1,0-.1.36l.26.08-.49.28a.18.18,0,0,0-.08.26.21.21,0,0,0,.15.1.15.15,0,0,0,.1,0l.49-.28-.08.26a.18.18,0,0,0,.13.23h.05a.19.19,0,0,0,.18-.13l.15-.62.64-.39-.23.87a.18.18,0,0,0,.13.23h.05a.19.19,0,0,0,.18-.13l.33-1.23,1-.56v1.46l-1.13,1c-.05.05-.08.1-.05.15l.05.92a.21.21,0,0,0,.1.15s.05,0,.1,0a.09.09,0,0,0,.08,0l.82-.41a.17.17,0,0,0,.1-.13l.31-1.49L16,74.88V76l-.9.9a.18.18,0,0,0,.26.26l.64-.64v.74l-.46.46a.18.18,0,1,0,.26.26l.18-.18v.56a.18.18,0,1,0,.36,0v-.54l.18.18a.19.19,0,0,0,.26,0,.17.17,0,0,0,0-.26l-.46-.46v-.74l.64.64a.19.19,0,0,0,.26,0,.17.17,0,0,0,0-.26l-.9-.9V74.91l1.28.74.31,1.49a.17.17,0,0,0,.1.13l.82.41a.09.09,0,0,0,.08,0,.15.15,0,0,0,.1,0,.17.17,0,0,0,.1-.15l.05-.92a.28.28,0,0,0-.05-.15l-1.13-1V74l1,.56.33,1.23a.19.19,0,0,0,.18.13h.05a.18.18,0,0,0,.13-.23l-.23-.87.64.39.15.62a.19.19,0,0,0,.18.13h.05a.18.18,0,0,0,.13-.23l-.08-.26.49.28s.05,0,.1,0a.14.14,0,0,0,.15-.1.18.18,0,0,0-.08-.26l-.49-.28L21,75a.19.19,0,1,0-.1-.36l-.62.15-.64-.39.87-.23a.19.19,0,1,0-.1-.36l-1.23.33-1-.56,1.28-.72,1.44.49H21a.15.15,0,0,0,.1,0l.77-.51a.18.18,0,0,0,.08-.15A.13.13,0,0,0,21.83,72.52Zm-3.52-4.11.49-.23,0,.54-.69.62Zm-4.75.31,0-.54.49.23.18.92ZM11.45,73,11,72.67l.46-.31.9.31Zm2.64,4-.49.23,0-.54.69-.62Zm2.29-6,1.26-.72v1.44l-.77.44-.46-.28,0-.87Zm-.36,0v.9l-.46.28-.77-.44V70.21Zm-1.44,2.49-1.26-.72L14.58,72l.77.44v.54Zm.18,1.77V73.72l.77-.44.46.28v.9h0Zm1.44-2-.46-.28v-.54l.46-.28.46.28v.54Zm.18,1.23v-.9l.46-.28.77.44v1.44Zm2.44,2.18,0,.54-.49-.23L18.13,76ZM21,73l-.9-.31.9-.31.46.31Z"/><path class="cls-1" d="M63.48,136.95l-.62-.41a.23.23,0,0,0-.13,0l-1.13.39-.33-.18a.15.15,0,0,0-.15.26l.15.1-1,.56-.62-.36v-.44l.62-.36.31.18a.15.15,0,0,0,.15-.26l-.15-.1.8-.46,1,.26h.05a.17.17,0,0,0,.15-.1.15.15,0,0,0-.1-.18l-.69-.18.51-.31.49.13h.05a.17.17,0,0,0,.15-.1.15.15,0,0,0-.1-.18l-.21-.05.39-.23a.15.15,0,0,0-.15-.26l-.39.23.05-.21a.15.15,0,1,0-.28-.08l-.13.49-.51.31.18-.69a.15.15,0,1,0-.28-.08l-.26,1-.8.46v-1.18l.9-.8a.2.2,0,0,0,.05-.13l-.05-.72a.14.14,0,0,0-.08-.13.16.16,0,0,0-.15,0l-.67.33c-.05,0-.08.05-.08.1l-.23,1.18-1,.59v-.92l.72-.72a.15.15,0,0,0-.21-.21l-.51.51v-.59l.36-.36a.15.15,0,0,0-.21-.21l-.15.15v-.46a.15.15,0,0,0-.31,0V133l-.15-.15a.15.15,0,0,0-.21.21l.36.36V134l-.51-.51a.15.15,0,1,0-.21.21l.72.72v.92l-1-.59-.23-1.18c0-.05-.05-.08-.08-.1l-.67-.33a.16.16,0,0,0-.15,0,.14.14,0,0,0-.08.13l-.05.72a.2.2,0,0,0,.05.13l.9.8V136l-.8-.46-.26-1a.15.15,0,1,0-.28.08l.18.69-.51-.31-.13-.49a.15.15,0,1,0-.28.08l.05.21-.39-.23a.15.15,0,0,0-.15.26l.39.23-.21.05a.15.15,0,0,0-.1.18.14.14,0,0,0,.15.1h.05l.49-.13.51.31-.69.18a.15.15,0,0,0-.1.18.14.14,0,0,0,.15.1h.05l1-.26.8.46-1,.59-1.13-.39a.11.11,0,0,0-.13,0l-.62.41a.15.15,0,0,0,0,.26l.62.41a.09.09,0,0,0,.08,0h.05l1.13-.39,1,.59-.8.46-1-.26a.15.15,0,0,0-.08.28l.69.18-.51.31-.49-.13a.15.15,0,0,0-.08.28l.21.05-.39.23a.14.14,0,0,0-.05.21.14.14,0,0,0,.13.08.09.09,0,0,0,.08,0l.39-.23-.05.21a.15.15,0,0,0,.1.18h.05a.17.17,0,0,0,.15-.1l.13-.49.51-.31-.18.69a.15.15,0,0,0,.1.18h.05a.17.17,0,0,0,.15-.1l.26-1,.8-.46v1.18l-.9.8a.2.2,0,0,0-.05.13l.05.72a.14.14,0,0,0,.08.13.13.13,0,0,0,.15,0l.67-.33c.05,0,.08-.05.08-.1l.23-1.18,1-.59v.92l-.72.72a.15.15,0,0,0,.21.21l.51-.51v.59l-.36.36a.15.15,0,0,0,.21.21l.15-.15v.46a.15.15,0,0,0,.31,0v-.46l.15.15a.19.19,0,0,0,.1.05.13.13,0,0,0,.1-.05.16.16,0,0,0,0-.21l-.36-.36v-.59l.51.51a.19.19,0,0,0,.1.05.13.13,0,0,0,.1-.05.16.16,0,0,0,0-.21l-.72-.72v-.92l1,.59.23,1.18c0,.05.05.08.08.1l.67.33.08,0a.09.09,0,0,0,.08,0,.14.14,0,0,0,.08-.13l.05-.72a.2.2,0,0,0-.05-.13l-.9-.8V138.1l.8.46.26,1a.14.14,0,0,0,.15.1h.05a.15.15,0,0,0,.1-.18l-.18-.69.51.31.13.49a.14.14,0,0,0,.15.1h.05a.15.15,0,0,0,.1-.18l-.05-.21.39.23a.09.09,0,0,0,.08,0,.14.14,0,0,0,.13-.08.14.14,0,0,0-.05-.21l-.39-.23L63,139a.15.15,0,0,0-.08-.28l-.49.13-.51-.31.69-.18a.15.15,0,0,0-.08-.28l-1,.26-.8-.46,1-.59,1.13.39H63a.09.09,0,0,0,.08,0l.62-.41a.14.14,0,0,0,.08-.13C63.76,137,63.53,137,63.48,136.95Zm-2.82-3.29.39-.18,0,.44-.56.49Zm-3.77.26,0-.44.39.18.15.74Zm-1.69,3.39-.36-.23.36-.23.72.23Zm2.11,3.16-.39.18,0-.44.56-.49Zm1.85-4.8,1-.59v1.16l-.62.36-.39-.21v-.72Zm-.31,0v.72l-.39.21-.62-.36v-1.16Zm-1.16,2-1-.56,1-.56.62.36v.44Zm.15,1.41V137.9l.62-.36.39.21v.72h0ZM59,137.51l-.39-.21v-.44l.39-.21.39.21v.44Zm.15,1v-.72l.39-.21.62.36v1.16Zm1.93,1.75,0,.44-.39-.18-.15-.74Zm1.69-2.93-.72-.23.72-.23.36.23Z"/><path class="cls-1" d="M33.38,113.27a.16.16,0,0,0-.23.08l-.18.36-.28-.28a.18.18,0,0,0-.26.26l.28.28-.33.18a.19.19,0,1,0,.18.33l.33-.18.08.39a.2.2,0,0,0,.21.15.13.13,0,0,0,.1-.05.19.19,0,0,0,.05-.15l-.08-.39.39.05a.28.28,0,0,0,.15-.05.13.13,0,0,0,.05-.1c0-.1-.05-.18-.15-.21l-.39-.05.18-.36A.23.23,0,0,0,33.38,113.27Z"/><path class="cls-1" d="M43.14,118.33l-1-.26a.75.75,0,0,0-.21-.49.66.66,0,0,0-1,0,.45.45,0,0,0-.1.13l-.69-.18.28-.31a.22.22,0,0,0,.05-.18.31.31,0,0,0-.13-.13l-1.26-.31a.19.19,0,1,0-.1.36l1,.23-.28.31a.22.22,0,0,0-.05.18.31.31,0,0,0,.13.13l1,.26a.69.69,0,0,0,.21.46.66.66,0,0,0,1,0,.22.22,0,0,0,.08-.13l.67.18-4.65,4.93-.21-.67a.2.2,0,0,0,.1-.1.67.67,0,0,0-.49-1.13l-.31-1a.31.31,0,0,0-.13-.13.17.17,0,0,0-.18.05l-.28.31L35.69,118a.31.31,0,0,0-.13-.13.17.17,0,0,0-.18.05l-.28.31-1-3.18,3.21.82-.28.31a.22.22,0,0,0-.05.18.31.31,0,0,0,.13.13l1.26.31a.19.19,0,1,0,.1-.36l-1-.23.28-.31a.22.22,0,0,0,.05-.18.31.31,0,0,0-.13-.13l-3.83-1a.17.17,0,0,0-.18.05.24.24,0,0,0-.05.18l1.16,3.77a.31.31,0,0,0,.13.13.17.17,0,0,0,.18-.05l.28-.31.87,2.88a.31.31,0,0,0,.13.13.17.17,0,0,0,.18-.05l.28-.31.21.67a.56.56,0,0,0-.13.1.66.66,0,0,0,0,1,.68.68,0,0,0,.49.18l.28,1a.31.31,0,0,0,.13.13.17.17,0,0,0,.18-.05l5.14-5.37a.22.22,0,0,0,.05-.18A.12.12,0,0,0,43.14,118.33Zm-1.41,0a.31.31,0,1,1,0-.44A.3.3,0,0,1,41.73,118.3Zm-4.47,3.77a.31.31,0,1,1,0,.44A.32.32,0,0,1,37.26,122.08Z"/><path class="cls-1" d="M39,119.74a.67.67,0,1,0,1,0A.66.66,0,0,0,39,119.74Zm.72.67a.31.31,0,1,1,0-.44A.35.35,0,0,1,39.72,120.41Z"/><path class="cls-1" d="M37.13,117.92a.67.67,0,1,0,1,0A.68.68,0,0,0,37.13,117.92Zm.69.67a.31.31,0,1,1,0-.44A.35.35,0,0,1,37.82,118.59Z"/><path class="cls-1" d="M35.23,116.12a.67.67,0,1,0,1,0A.66.66,0,0,0,35.23,116.12Zm.69.67a.31.31,0,1,1,0-.44A.3.3,0,0,1,35.92,116.79Z"/><path class="cls-1" d="M15.89,171.9a.18.18,0,0,0-.26.08l-.21.33-.26-.28a.18.18,0,0,0-.28.23l.26.28-.36.15a.18.18,0,0,0,.13.33l.36-.15.05.39a.16.16,0,0,0,.21.15.13.13,0,0,0,.1-.05.12.12,0,0,0,.05-.15l-.05-.39.39.08c.05,0,.13,0,.15-.05a.13.13,0,0,0,.05-.1.16.16,0,0,0-.13-.21l-.39-.08.21-.33A.13.13,0,0,0,15.89,171.9Z"/><path class="cls-1" d="M25.24,177.7l-1-.33a.68.68,0,0,0-.18-.49.66.66,0,0,0-1-.05.26.26,0,0,0-.1.13l-.67-.23.31-.28a.16.16,0,0,0,.05-.18.21.21,0,0,0-.13-.13l-1.23-.41a.18.18,0,0,0-.13.33l.92.31-.31.28a.16.16,0,0,0-.05.18A.16.16,0,0,0,22,177l1,.33a.68.68,0,0,0,1.13.51l.1-.1.67.23-5.06,4.55-.15-.69.13-.08a.66.66,0,0,0,.05-1,.81.81,0,0,0-.44-.23l-.23-1a.21.21,0,0,0-.13-.13.23.23,0,0,0-.18,0l-.31.28-.64-2.93a.21.21,0,0,0-.13-.13.23.23,0,0,0-.18,0l-.31.28-.72-3.24,3.13,1.08-.31.28a.16.16,0,0,0-.05.18.16.16,0,0,0,.13.13l1.23.41a.18.18,0,0,0,.13-.33l-1-.28.31-.28a.16.16,0,0,0,.05-.18.21.21,0,0,0-.13-.13l-3.75-1.28a.23.23,0,0,0-.18,0,.15.15,0,0,0-.05.18l.85,3.85a.21.21,0,0,0,.13.13.23.23,0,0,0,.18,0l.31-.28.64,2.93a.21.21,0,0,0,.13.13.23.23,0,0,0,.18,0l.31-.28.15.69a.26.26,0,0,0-.13.1.66.66,0,0,0-.05,1,.8.8,0,0,0,.46.23l.21,1a.21.21,0,0,0,.13.13.23.23,0,0,0,.18,0l5.52-5a.16.16,0,0,0,.05-.18C25.37,177.78,25.32,177.73,25.24,177.7Zm-1.41-.13a.31.31,0,1,1,0-.44A.3.3,0,0,1,23.83,177.57ZM19.1,181a.31.31,0,1,1,0,.44A.3.3,0,0,1,19.1,181Z"/><path class="cls-1" d="M21,178.78a.67.67,0,1,0,1,.05A.71.71,0,0,0,21,178.78Zm.64.72a.32.32,0,0,1-.44,0,.31.31,0,0,1,.46-.41A.32.32,0,0,1,21.67,179.5Z"/><path class="cls-1" d="M19.28,176.83a.67.67,0,1,0,1,.05A.68.68,0,0,0,19.28,176.83Zm.64.72a.32.32,0,0,1-.44,0,.3.3,0,0,1,0-.44.31.31,0,1,1,.41.46Z"/><path class="cls-1" d="M17.51,174.87a.67.67,0,1,0,1,.05A.66.66,0,0,0,17.51,174.87Zm.67.72a.31.31,0,1,1,0-.44A.32.32,0,0,1,18.18,175.59Z"/><path class="cls-1" d="M67.41,52.63h-.69a.71.71,0,0,0,.19-.5.63.63,0,0,0-.22-.5.74.74,0,0,0-.5-.22.28.28,0,0,0-.16,0c0-.06,0-.09,0-.16a.71.71,0,0,0-.72-.72.67.67,0,0,0-.6.35.75.75,0,0,0-.6-.35.71.71,0,0,0-.72.72.28.28,0,0,0,0,.16c-.06,0-.09,0-.16,0a.63.63,0,0,0-.5.22.74.74,0,0,0-.22.5.71.71,0,0,0,.19.5h-.69a.14.14,0,0,0-.13.13v1.1a.14.14,0,0,0,.13.13h.13v3.46a.14.14,0,0,0,.13.13h4.88a.14.14,0,0,0,.13-.13V54h.13a.14.14,0,0,0,.13-.13v-1.1C67.5,52.69,67.47,52.63,67.41,52.63Zm-1.57-.85a.49.49,0,1,1,.35.85H65Zm-1-.5a.5.5,0,0,1,1,0,.51.51,0,0,1-.16.35l-.85.85v-1.2Zm-.09,4.06a.14.14,0,0,0,.13-.13V52.85h.44v3l-.5-.28s-.06,0-.13,0l-.5.28v-3h.44v2.36A.14.14,0,0,0,64.73,55.34Zm-1.83-3.56a.46.46,0,0,1,.69,0,.11.11,0,0,0,.16-.16.51.51,0,0,1-.16-.35.5.5,0,0,1,1,0v1.2l-.54-.54a.11.11,0,0,0-.16.16l.54.54h-1.2a.49.49,0,0,1-.35-.85Zm4.38,2H65.84a.13.13,0,1,0,0,.25h1.23v3.34H62.37V54H63.6a.13.13,0,1,0,0-.25H62.15v-.88h1.79v3.21s0,.06.06.09.06,0,.13,0l.6-.35.6.35h.13s.06-.06.06-.09V52.85h1.76v.88Z"/><path class="cls-1" d="M45.91,92.44C45.84,92,45.43,90,45.43,90a2.56,2.56,0,0,0-2.34-2.08v-.56l.15,0a8.14,8.14,0,0,0,1,.59,1.84,1.84,0,0,0,.82.26.52.52,0,0,0,.33-.1c.18-.15.18-.46,0-1-.08-.23-.18-.46-.23-.59a4,4,0,0,0,.23-.59c.18-.54.18-.85,0-1s-.62-.13-1.23.21a7.61,7.61,0,0,0-1,.64h0v-.74a.18.18,0,1,0-.36,0v.74h0a11.71,11.71,0,0,0-1-.64c-.62-.33-1-.39-1.23-.21s-.18.46,0,1c.08.23.18.46.23.59a4,4,0,0,0-.23.59c-.18.54-.18.85,0,1a.44.44,0,0,0,.33.1,1.93,1.93,0,0,0,.82-.26c.33-.18.69-.41,1-.59a.33.33,0,0,0,.15,0v.56A2.54,2.54,0,0,0,40.44,90L40,92.44l-.13.08a2.58,2.58,0,0,0-.44.39,2.25,2.25,0,0,0-.64,1.59.19.19,0,0,0,.13.18,11.91,11.91,0,0,0,2.82.67,1.31,1.31,0,0,0,2.62,0,12.21,12.21,0,0,0,2.82-.67.19.19,0,0,0,.13-.18A2.89,2.89,0,0,0,45.91,92.44Zm-1.64-7c.59-.31.77-.26.8-.26a1.6,1.6,0,0,1-.13.64,4.84,4.84,0,0,1-.23.56.16.16,0,0,0,0,.15,4.84,4.84,0,0,1,.23.56,1.6,1.6,0,0,1,.13.64s-.21.05-.72-.21A8.18,8.18,0,0,1,43.5,87a.5.5,0,0,0,.08-.26v-.51a.61.61,0,0,0-.13-.36C43.68,85.77,44,85.56,44.27,85.41Zm-2,1.62a9.29,9.29,0,0,1-.85.51c-.51.26-.67.23-.72.21a1.6,1.6,0,0,1,.13-.64,4.84,4.84,0,0,1,.23-.56.16.16,0,0,0,0-.15,4.84,4.84,0,0,1-.23-.56,1.6,1.6,0,0,1-.13-.64s.21-.05.8.26a7.65,7.65,0,0,1,.82.51.56.56,0,0,0-.13.36v.51A.51.51,0,0,0,42.27,87Zm.39-.1h0a.22.22,0,0,1-.08-.15v-.51a.19.19,0,0,1,.13-.18h.36a.19.19,0,0,1,.13.18v.51a.22.22,0,0,1-.08.15h0a.15.15,0,0,1-.1,0h-.26Zm.23,9.24a.94.94,0,0,1-.92-.8c.31,0,.62,0,.92,0s.62,0,.92,0A.94.94,0,0,1,42.88,96.17Zm0-1.13A11.58,11.58,0,0,1,39,94.37a2.21,2.21,0,0,1,1-1.59,9.67,9.67,0,0,0,2.82.44,7.9,7.9,0,0,0,1.36-.1c.1,0,.18-.1.15-.21s-.1-.18-.21-.15a8.62,8.62,0,0,1-4-.31L40.7,90A2.2,2.2,0,0,1,45,90l.46,2.39-.59.15a.18.18,0,0,0-.13.23.22.22,0,0,0,.18.15H45l.69-.18a2.18,2.18,0,0,1,1,1.59A11.21,11.21,0,0,1,42.88,95Z"/><path class="cls-1" d="M64.17,153c.05-.28.33-1.54.33-1.57a1.65,1.65,0,0,0-.85-1.8l.13-.33s.05,0,.1,0a6.26,6.26,0,0,0,.41.59,1.24,1.24,0,0,0,.41.36.64.64,0,0,0,.21,0c.13-.05.21-.23.26-.59a2.37,2.37,0,0,0,0-.39l.28-.28c.23-.28.31-.46.26-.59s-.33-.23-.77-.18a4.42,4.42,0,0,0-.74.13h0l.18-.44a.11.11,0,0,0-.21-.1l-.18.44h0a5.7,5.7,0,0,0-.44-.62c-.28-.33-.49-.46-.67-.41s-.21.23-.26.59a2.37,2.37,0,0,0,0,.39l-.28.28c-.23.28-.31.46-.26.59a.26.26,0,0,0,.15.13,1.09,1.09,0,0,0,.54.05,6.05,6.05,0,0,0,.72-.1s.05.05.08.05l-.13.33a1.66,1.66,0,0,0-1.87.62l-.9,1.31a.19.19,0,0,0-.1,0l-.36.1a1.46,1.46,0,0,0-.77.74.11.11,0,0,0,0,.13,8.61,8.61,0,0,0,1.46,1.08.86.86,0,0,0,.46,1,.81.81,0,0,0,1.05-.39,7.13,7.13,0,0,0,1.8.31c.05,0,.1,0,.1-.08A1.55,1.55,0,0,0,64.17,153Zm.77-4.49c.41,0,.51,0,.51.05s0,.13-.23.36-.26.28-.26.28a.13.13,0,0,0-.05.1v.39c0,.31-.08.39-.1.41s-.13,0-.36-.28a6.23,6.23,0,0,1-.36-.51.26.26,0,0,0,.1-.13l.13-.28a.71.71,0,0,0,0-.23A1.43,1.43,0,0,1,64.94,148.48Zm-1.57.44a4.49,4.49,0,0,1-.62.08.85.85,0,0,1-.46-.05s0-.13.23-.36.26-.28.26-.28a.13.13,0,0,0,.05-.1v-.39c0-.31.08-.39.1-.41s.13,0,.41.33c.13.15.26.36.36.49a.27.27,0,0,0-.15.18l-.13.28A.52.52,0,0,0,63.38,148.91Zm.26.05h0c0-.05,0-.08,0-.1l.13-.28a.14.14,0,0,1,.1-.08h0l.15.05a0,0,0,0,1,0,0h0a.11.11,0,0,1,0,.13L64,149l-.08.08h-.08l-.15-.05h0S63.66,149,63.63,149Zm-2.13,5.42a.57.57,0,0,1-.33-.69c.18.08.36.18.51.26a4.63,4.63,0,0,0,.54.21A.61.61,0,0,1,61.5,154.38Zm.26-.67a7.38,7.38,0,0,1-2.08-1.34,1.35,1.35,0,0,1,1-.67,5.94,5.94,0,0,0,1.54,1,7.72,7.72,0,0,0,.82.28c.05,0,.13,0,.15-.08s0-.13-.08-.15a5.63,5.63,0,0,1-2.23-1.16l.87-1.28a1.39,1.39,0,0,1,2.52,1.05L64,152.84l-.39-.05c-.08,0-.13,0-.13.1a.14.14,0,0,0,.08.13h0a2.86,2.86,0,0,0,.44.05,1.38,1.38,0,0,1,.21,1.18A6.61,6.61,0,0,1,61.76,153.72Z"/><path class="cls-1" d="M10.27,10.73c.05-.28.33-1.54.33-1.57a1.65,1.65,0,0,0-.85-1.8L9.89,7s.05,0,.1,0a6.26,6.26,0,0,0,.41.59,1.24,1.24,0,0,0,.41.36A.64.64,0,0,0,11,8c.13-.05.21-.23.26-.59a2.37,2.37,0,0,0,0-.39l.28-.28c.23-.28.31-.46.26-.59S11.5,6,11.07,6a4.42,4.42,0,0,0-.74.13h0l.18-.44a.11.11,0,1,0-.21-.1L10.06,6h0a5.69,5.69,0,0,0-.44-.62C9.35,5.06,9.14,4.93,9,5s-.21.23-.26.59a2.37,2.37,0,0,0,0,.39l-.28.28c-.23.28-.31.46-.26.59A.26.26,0,0,0,8.29,7,1.09,1.09,0,0,0,8.83,7a6.05,6.05,0,0,0,.72-.1S9.6,7,9.63,7l-.13.33a1.66,1.66,0,0,0-1.87.62l-.9,1.31a.19.19,0,0,0-.1,0l-.36.1a1.46,1.46,0,0,0-.77.74.11.11,0,0,0,0,.13A8.61,8.61,0,0,0,7,11.3a.86.86,0,0,0,.46,1,.81.81,0,0,0,1.05-.39,7.13,7.13,0,0,0,1.8.31c.05,0,.1,0,.1-.08A1.35,1.35,0,0,0,10.27,10.73Zm.8-4.49c.41,0,.51,0,.51.05s0,.13-.23.36-.26.28-.26.28A.13.13,0,0,0,11,7v.39c0,.31-.08.39-.1.41s-.13,0-.36-.28A6.23,6.23,0,0,1,10.22,7a.26.26,0,0,0,.1-.13l.13-.28a.71.71,0,0,0,0-.23A1.06,1.06,0,0,1,11.07,6.24ZM9.5,6.68a4.49,4.49,0,0,1-.62.08.85.85,0,0,1-.46-.05s0-.13.23-.36.26-.28.26-.28A.13.13,0,0,0,9,6V5.57c0-.31.08-.39.1-.41s.13,0,.41.33c.13.15.26.36.36.49a.27.27,0,0,0-.15.18l-.13.28C9.5,6.57,9.47,6.62,9.5,6.68Zm.26.05h0c0-.05,0-.08,0-.1l.13-.28a.14.14,0,0,1,.1-.08h0l.15.05a0,0,0,0,1,0,0h0a.11.11,0,0,1,0,.13l-.13.28L10,6.83H9.94l-.13-.08h0A.09.09,0,0,1,9.76,6.73ZM7.6,12.14a.57.57,0,0,1-.33-.69c.18.08.36.18.51.26a4.63,4.63,0,0,0,.54.21A.61.61,0,0,1,7.6,12.14Zm.28-.67A7.39,7.39,0,0,1,5.8,10.14a1.35,1.35,0,0,1,1-.67,5.94,5.94,0,0,0,1.54,1,7.72,7.72,0,0,0,.82.28c.05,0,.13,0,.15-.08s0-.13-.08-.15A5.63,5.63,0,0,1,7,9.32L7.88,8A1.39,1.39,0,0,1,10.4,9.09l-.31,1.52-.39-.05c-.08,0-.13,0-.13.1a.14.14,0,0,0,.08.13h0a2.86,2.86,0,0,0,.44.05A1.38,1.38,0,0,1,10.32,12,6.39,6.39,0,0,1,7.88,11.48Z"/><path class="cls-1" d="M24.52,20.57h0v-.08h0v0h0l0,0h0l0,0h0l0,0h-.08l-3.83-.56-1.69-3.47h0v0h0l0,0h0l0,0h0l0,0h-.21l0,0h0l0,0h0l0,0h0v0h0l-1.67,3.47-3.8.56h-.08a0,0,0,0,0,0,0h0l0,0h0l0,0h0v0h0v.05h0v0h0v0h0v0h0v0h0v0h0v0h0l0,0h0l2.75,2.7L15,27.22h0v0h0v0h0v0h0v0h0v0h0a0,0,0,0,0,0,0h0l0,0h0l0,0a0,0,0,0,1,0,0h.15l3.42-1.8,3.42,1.8h.1a.15.15,0,0,0,.1,0l0,0h0l0,0h0l0,0h0v0h0v0h0v0h0v0h0v0h0l-.64-3.8,2.75-2.7h0l0,0h0v0h0v0h0v0h0v0h0l0,0Zm-7.68-.36,1.34,1.85-4.34-1.41ZM13.71,21l4.34,1.41-2.18.72Zm4.78,4.29-2.7,1.41,1.05-1.46a.19.19,0,0,0-.31-.21l-1.05,1.46.51-3,2.18-.72L17,24.39a.18.18,0,0,0,.05.26.15.15,0,0,0,.1,0,.22.22,0,0,0,.15-.08L18.49,23Zm0-3.44L17.15,20l1.34-2.72Zm.39-4.57L20.21,20l-1.34,1.85Zm0,8V23l2.7,3.7Zm3,1.21-2.67-3.72,2.18.72Zm-.39-3.36-2.18-.72,1.93-.62a.19.19,0,1,0-.1-.36L19.18,22l1.34-1.85,3,.44-1.72.56a.18.18,0,0,0-.13.23.19.19,0,0,0,.18.13h.05L23.62,21Z"/><path class="cls-1" d="M44.83,4.75h0V4.7h0l-2.23-.33-1-2h-.1l-1,2-2.23.33h0v.05h0v0h0l1.62,1.57-.39,2.21h0v0h.05l2-1.05,2,1.05h0s.05,0,.05,0h0v0h0l-.39-2.21,1.62-1.57h0c.08,0,.08,0,.08,0Zm-4.49-.21.8,1.08L38.59,4.8ZM38.54,5l2.54.82-1.26.41ZM41.32,7.5l-1.57.82.62-.85c0-.05,0-.13,0-.15s-.13,0-.15,0l-.62.85.31-1.75L41.14,6l-.69,1c0,.05,0,.13,0,.15a.08.08,0,0,0,.05,0s.08,0,.08-.05l.69-1V7.5Zm0-2-.8-1.08.8-1.59Zm.21-2.67.8,1.59-.8,1.08Zm0,4.67V6.16l1.57,2.16Zm1.75.69L41.7,6,43,6.44Zm-.23-2-1.26-.41,1.13-.36A.14.14,0,0,0,43,5.34a.14.14,0,0,0-.13-.08l-1.13.36.8-1.08,1.75.26-1,.33a.14.14,0,0,0-.08.13c0,.05.05.08.1.08h0l1-.33Z"/><path class="cls-1" d="M41.16,178.68h0v-.05h-.05l-2.49-.36L37.49,176h0v0h-.1v0h0l-1.13,2.26-2.49.36h-.08v.05h0v0h0v0h0v0h0v0h0l1.8,1.77L35.05,183h0v0h0v0h0v0h0v0h.08L37.36,182l2.23,1.18h0a.09.09,0,0,0,.08,0h0v0h0v0h0v0h0v0h0l-.44-2.49,1.8-1.77h0v0h0c.1,0,.1,0,.1-.05Zm-5-.23.87,1.21-2.85-.92Zm-2,.51,2.85.92-1.44.46Zm3.11,2.8-1.77.92.69-1a.13.13,0,0,0-.21-.15l-.69,1,.33-2,1.44-.46-.77,1.08a.13.13,0,0,0,0,.18.09.09,0,0,0,.08,0,.19.19,0,0,0,.1-.05l.77-1.08Zm0-2.23-.87-1.21.87-1.8Zm.26-3,.87,1.8-.87,1.21Zm0,5.24v-1.49l1.77,2.44Zm2,.8-1.77-2.44,1.44.46Zm-.26-2.21-1.44-.46,1.26-.41a.12.12,0,1,0-.08-.23l-1.26.41.87-1.21,2,.28-1.13.36a.11.11,0,0,0-.08.15.14.14,0,0,0,.13.08h0l1.13-.36Z"/><path class="cls-1" d="M58.21,63.53h0s0,0,0-.05a2.45,2.45,0,0,0-.67-1.05,2.22,2.22,0,0,0-1.1-.59h-.05a2.47,2.47,0,0,0-2.31.72l-2.36,2.52a1.45,1.45,0,0,0-.1-.31c-.18-.54-.39-.8-.64-.8s-.39.18-.59.64a2.91,2.91,0,0,0-.21.49l-.49.23c-.44.23-.62.44-.59.64a.36.36,0,0,0,.13.26,1.73,1.73,0,0,0,.69.33l.33.08-1,1a.82.82,0,0,0,1.18,1.13l1-1a1.45,1.45,0,0,0,.1.31,1.71,1.71,0,0,0,.36.69.41.41,0,0,0,.26.13c.21,0,.39-.18.59-.64a2.91,2.91,0,0,0,.21-.49l.49-.23c.44-.23.62-.44.59-.64s-.31-.44-.85-.59c-.33-.1-.74-.15-1-.21a.35.35,0,0,0-.08-.1l-.15-.15a.56.56,0,0,0-.13-.08.92.92,0,0,1-.05-.28l1-1a1.4,1.4,0,0,0,.41,1l-.26.28a.16.16,0,0,0,.23.23l2.11-2.26a.82.82,0,1,1,1.18,1.13l-.51.56a.84.84,0,0,0,0,1.16.82.82,0,0,0,1,.1h0a.68.68,0,0,0,.15-.13l.51-.56A2.49,2.49,0,0,0,58.21,63.53Zm-5.08,3c.51.13.59.26.59.31s-.08.13-.46.33a3.08,3.08,0,0,1-.49.23.2.2,0,0,0-.1.1,4.18,4.18,0,0,1-.21.49,1.36,1.36,0,0,1-.31.49s-.15-.08-.33-.59a6.82,6.82,0,0,1-.23-.82.67.67,0,0,0,.23-.13l.31-.31a.52.52,0,0,0,.13-.23A3.59,3.59,0,0,1,53.13,66.56ZM51.54,66h0a.19.19,0,0,1,.15-.05h0l.08,0,.15.15s0,.05.05.08h0a.17.17,0,0,1,0,.15l-.31.31a.19.19,0,0,1-.15.05h0l-.08,0-.15-.15s0-.05-.05-.05h0a.17.17,0,0,1,0-.15l.31-.33Zm-.9.62c.1,0,.21,0,.28.05a.35.35,0,0,0,.08.1l.15.15a.56.56,0,0,0,.13.08.92.92,0,0,1,.05.28l-.82.87a1,1,0,0,1-.05-1.39l.18-.15Zm-.74.8a1.4,1.4,0,0,0,.41,1l-.05.05a.49.49,0,1,1-.72-.67l.36-.39Zm1-1.08A6.31,6.31,0,0,1,50,66.2c-.51-.13-.59-.26-.59-.31s.08-.13.46-.33a3.08,3.08,0,0,1,.49-.23.2.2,0,0,0,.1-.1,4.18,4.18,0,0,1,.21-.49,1.36,1.36,0,0,1,.31-.49s.15.08.33.59a6.82,6.82,0,0,1,.23.82.67.67,0,0,0-.23.13L51,66.1A.62.62,0,0,0,50.87,66.38Zm2.54-1.21a1,1,0,0,1-.05-1.39l.36-.39a1.4,1.4,0,0,0,.41,1Zm1-1a1,1,0,0,1-.05-1.39,2.58,2.58,0,0,1,.85-.56,1.19,1.19,0,0,0-.31.59,1.32,1.32,0,0,0,.05.77Zm1.57-1.08a1.09,1.09,0,0,0-.77.23,1.24,1.24,0,0,1,0-.44,1,1,0,0,1,.44-.62,1,1,0,0,1,.69-.13,2.34,2.34,0,0,1,1,.46,1.19,1.19,0,0,0-.67,0A1.48,1.48,0,0,0,55.93,63.07Zm1,.64a1,1,0,0,0-.23-.33,1.31,1.31,0,0,0-.33-.23.71.71,0,0,1,.39-.21,1,1,0,0,1,1.21.62A2.08,2.08,0,0,1,58,64.61,1.12,1.12,0,0,0,57.6,64,1.33,1.33,0,0,0,56.88,63.71Zm-.69,2.54a.49.49,0,0,1,0-.69l.41-.44a1,1,0,0,1,.28,1,.77.77,0,0,1-.1.26A.51.51,0,0,1,56.19,66.25Zm1-.39a1.23,1.23,0,0,0-.41-1,1.14,1.14,0,0,0,.21-.8,1.08,1.08,0,0,1,.36.23,1,1,0,0,1,.05,1.39l-.21.18Z"/><path class="cls-1" d="M34.15,13.53h0a0,0,0,0,0,0,0A1.57,1.57,0,0,0,33.3,13a1.81,1.81,0,0,0-1,0h0A1.83,1.83,0,0,0,31,14.28l-.77,2.57L30,16.66c-.31-.31-.54-.41-.72-.33s-.21.26-.21.64c0,.18,0,.33,0,.41a2.59,2.59,0,0,0-.26.33c-.21.31-.28.51-.18.64a.46.46,0,0,0,.18.13,1.19,1.19,0,0,0,.59,0c.08,0,.15,0,.26-.05l-.31,1a.63.63,0,0,0,1.21.39l.31-1,.18.18a1.36,1.36,0,0,0,.49.33.36.36,0,0,0,.23,0c.15-.05.21-.26.21-.64,0-.18,0-.33,0-.41a2.59,2.59,0,0,0,.26-.33c.21-.31.28-.51.18-.64s-.36-.21-.77-.1a7.22,7.22,0,0,0-.74.21s-.05,0-.1-.05l-.15-.05-.1,0c-.05-.05-.08-.1-.15-.18L30.71,16a1,1,0,0,0,.62.54l-.08.28a.12.12,0,0,0,.23.08l.69-2.29a.63.63,0,0,1,1.21.39l-.18.56a.63.63,0,0,0,.41.8.65.65,0,0,0,.72-.26h0a.43.43,0,0,0,.05-.13l.18-.56A2,2,0,0,0,34.15,13.53Zm-2.47,3.85c.41-.08.49,0,.51,0s0,.13-.21.39a2.71,2.71,0,0,1-.26.31s0,.05,0,.1a3.8,3.8,0,0,1,0,.41c0,.33,0,.44-.05.44s-.13,0-.44-.28c-.15-.15-.33-.36-.44-.49a.26.26,0,0,0,.1-.18l.1-.33a.28.28,0,0,0,0-.21Zm-1.28.18h0q0-.08.08-.08h.05l.15.05s0,0,.05,0h0a.11.11,0,0,1,0,.13l-.1.33q0,.08-.08.08h-.05l-.15-.05s0,0-.05,0h0a.11.11,0,0,1,0-.13l.1-.33Zm-.41.74.21-.08s.05,0,.1.05l.15.05.1,0c.05.05.08.1.15.18l-.26.87a.77.77,0,0,1-.51-1l.05-.15Zm-.23.8a1,1,0,0,0,.62.54l0,.08a.37.37,0,0,1-.72-.21l.13-.41ZM30.07,18c-.18.05-.41.13-.64.18-.41.08-.49,0-.51,0s0-.13.21-.39a2.71,2.71,0,0,1,.26-.31s0-.05,0-.1a3.8,3.8,0,0,1,0-.41c0-.33,0-.44.05-.44s.13,0,.44.28c.15.15.33.36.44.49a.26.26,0,0,0-.1.18l-.1.33A.15.15,0,0,0,30.07,18Zm1.31-1.72a.77.77,0,0,1-.51-1L31,15a1,1,0,0,0,.62.54Zm.33-1a.77.77,0,0,1-.51-1,1.63,1.63,0,0,1,.41-.67,1.16,1.16,0,0,0,0,.51,1,1,0,0,0,.31.51ZM32.43,14a1,1,0,0,0-.46.44.59.59,0,0,1-.15-.31.63.63,0,0,1,.1-.56.81.81,0,0,1,.44-.33,1.49,1.49,0,0,1,.82,0,1,1,0,0,0-.46.26A.86.86,0,0,0,32.43,14Zm.87.13A1,1,0,0,0,33,14a.63.63,0,0,0-.31,0,1.06,1.06,0,0,1,.18-.28.74.74,0,0,1,1.05,0,1.91,1.91,0,0,1,.41.69,1,1,0,0,0-.44-.28A.85.85,0,0,0,33.3,14.12Zm.39,2a.38.38,0,0,1-.26-.46l.13-.44a.73.73,0,0,1,.51.54.71.71,0,0,1,0,.23A.35.35,0,0,1,33.69,16.1Zm.59-.62a1,1,0,0,0-.64-.54,1,1,0,0,0-.13-.62.74.74,0,0,1,.33,0,.77.77,0,0,1,.51,1l-.08.18Z"/><path class="cls-1" d="M37.64,161.86h0s0,0,0,0a1.9,1.9,0,0,0-.72.56,1.77,1.77,0,0,0-.36.85h0v0a1.77,1.77,0,0,0,.69,1.62l2,1.54a.91.91,0,0,0-.23.1c-.39.18-.54.33-.54.51s.15.26.51.39a1.74,1.74,0,0,0,.39.1,1.3,1.3,0,0,0,.21.33c.21.31.36.41.51.39a.3.3,0,0,0,.18-.13,1.09,1.09,0,0,0,.18-.54.71.71,0,0,0,0-.23l.8.62a.6.6,0,0,0,.74-1l-.8-.62a.91.91,0,0,0,.23-.1,1.18,1.18,0,0,0,.46-.31.34.34,0,0,0,.08-.21c0-.15-.15-.26-.51-.39a1.74,1.74,0,0,0-.39-.1,1.3,1.3,0,0,0-.21-.33c-.21-.31-.36-.41-.51-.39s-.28.26-.36.64-.05.54-.08.72l-.08.08-.1.13s0,.05-.05.1l-.21.08-.82-.62a1.08,1.08,0,0,0,.69-.36l.23.18a.11.11,0,1,0,.13-.18L37.93,164a.6.6,0,0,1,.74-1l.44.33a.61.61,0,0,0,.85-.1.62.62,0,0,0,0-.72h0s-.05-.08-.1-.1l-.44-.33A1.64,1.64,0,0,0,37.64,161.86Zm2.57,3.47c.08-.39.15-.44.18-.46s.1.05.28.31.21.33.21.33.05.05.08.05l.36.1a1.66,1.66,0,0,1,.39.18s-.05.13-.41.28c-.21.08-.41.18-.59.23,0-.05-.05-.13-.13-.15l-.26-.21a.28.28,0,0,0-.18-.08C40.16,165.76,40.19,165.53,40.21,165.32ZM40,166.5h0a.19.19,0,0,1-.05-.1h0s0,0,0-.05l.1-.13s0,0,.05,0h0s.08,0,.1,0l.26.21a.19.19,0,0,1,.05.1h0s0,0,0,.05l-.1.13s0,0-.05,0h0s-.08,0-.1,0L40,166.5Zm.51.62a.5.5,0,0,1,0-.21l.08-.08.1-.13s0-.05.05-.1l.21-.08.69.54a.73.73,0,0,1-1,.13l-.15-.08Zm.62.46a1.08,1.08,0,0,0,.69-.36l.05.05a.39.39,0,0,1,.08.51.36.36,0,0,1-.51.08l-.31-.28Zm-.85-.62a2.7,2.7,0,0,1-.08.62c-.08.39-.15.44-.18.46s-.1-.05-.28-.31-.21-.33-.21-.33-.05-.05-.08-.05l-.36-.1a1.66,1.66,0,0,1-.39-.18s.05-.13.41-.28c.21-.08.41-.18.59-.23,0,.05.05.13.13.15l.26.21A.48.48,0,0,0,40.24,167Zm-1.05-1.75a.73.73,0,0,1-1,.13l-.31-.23a1.08,1.08,0,0,0,.69-.36Zm-.82-.62a.73.73,0,0,1-1,.13,1.48,1.48,0,0,1-.46-.59.92.92,0,0,0,.46.18.79.79,0,0,0,.54-.1Zm-.87-1.08a.74.74,0,0,0,.23.54.63.63,0,0,1-.31,0,.68.68,0,0,1-.46-.28.93.93,0,0,1-.15-.51,1.57,1.57,0,0,1,.28-.72,1.06,1.06,0,0,0,.05.49A.73.73,0,0,0,37.49,163.52Zm.39-.72a.78.78,0,0,0-.21.21,1.2,1.2,0,0,0-.13.26.92.92,0,0,1-.18-.26.72.72,0,0,1,.36-.92,1.48,1.48,0,0,1,.74-.13.74.74,0,0,0-.39.31A.83.83,0,0,0,37.88,162.81Zm1.87.31a.39.39,0,0,1-.51.08l-.33-.26a.74.74,0,0,1,.67-.28.6.6,0,0,1,.21.05A.35.35,0,0,1,39.75,163.11Zm-.33-.72a.91.91,0,0,0-.69.39.8.8,0,0,0-.59-.08,1,1,0,0,1,.13-.28.73.73,0,0,1,1-.13l.15.1Z"/><path class="cls-1" d="M66.87,10.55a.49.49,0,0,0-.49.49.57.57,0,0,1-.56.56h-.49v-1h.49a.49.49,0,0,0,.49-.49A.49.49,0,0,0,66,9.63V9.17a1.15,1.15,0,0,0-.87-1.08l-2-.44a.17.17,0,0,0-.1-.13.15.15,0,0,0-.18.05.86.86,0,0,1-.44-.46.15.15,0,0,0,.05-.18.31.31,0,0,0-.13-.13V6a.14.14,0,0,0,.1-.15.17.17,0,0,0-.1-.15v-.8a.14.14,0,0,0,.1-.15.17.17,0,0,0-.1-.15V3.23a.15.15,0,0,0-.31,0v.28l-.72.08h0l-2.88.31a.17.17,0,0,0-.15.15V7.11a1.44,1.44,0,0,0-.44,1V9.19a.16.16,0,0,0-.13.15v1a.17.17,0,0,0,.15.15h1.34v1.21a.17.17,0,0,0,.15.15h2.72a.17.17,0,0,0,.15-.15V10.58h.31v1.21a.17.17,0,0,0,.15.15h1.8a.17.17,0,0,0,.15-.15v-.72a.15.15,0,0,0-.31,0v.54H62.86v-1H65v1.21a.17.17,0,0,0,.15.15h.64a.91.91,0,0,0,.9-.9A.15.15,0,0,1,67,11a1.21,1.21,0,0,1-1.21,1.21H57.55v-.33h1.13a.17.17,0,0,0,.15-.15V11a.15.15,0,0,0-.31,0v.56H57.39a.17.17,0,0,0-.15.15v.64a.17.17,0,0,0,.15.15h8.37A1.55,1.55,0,0,0,67.3,11,.44.44,0,0,0,66.87,10.55ZM58.16,8.19a1.14,1.14,0,0,1,.39-.85.2.2,0,0,0,.05-.13v-3L61.17,4V6.83a2,2,0,0,0,.44,1.23,2.15,2.15,0,0,0,1,.67h.05a.16.16,0,0,0,.05-.31,1.7,1.7,0,0,1-.82-.56,1.72,1.72,0,0,1-.36-1V4L62,3.9v.77H62A.15.15,0,1,0,62,5H62v.77H62a.15.15,0,1,0,0,.31H62v.82l-.08,0a.2.2,0,0,0-.13.21.16.16,0,0,0,.15.13H62l.05,0a1.25,1.25,0,0,0,.64.67l0,.05a.17.17,0,0,0,.1.21h.05A.17.17,0,0,0,63,8L63,8l2,.46a.85.85,0,0,1,.62.77V9.6H62.43a3.15,3.15,0,0,1-.49-.05L60.7,9.32A5.91,5.91,0,0,0,60,9.24H58.19V8.19Zm3.75,3.42H59.52v-1h.69a.17.17,0,0,0,.15-.15v-.18l1.36.26.18,0v1.08Zm.49-1.36a5.43,5.43,0,0,1-.62-.05l-1.54-.31h0a.15.15,0,0,0-.1,0,.2.2,0,0,0-.05.13v.21H58V9.58h2a5.43,5.43,0,0,1,.62.05l1.23.23a3.83,3.83,0,0,0,.54.05h3.39a.15.15,0,1,1,0,.31l-3.39,0Z"/><path class="cls-1" d="M29.3,110.34a.49.49,0,0,0-.49.49.57.57,0,0,1-.56.56h-.46v-1.05h.49a.49.49,0,0,0,.49-.49.49.49,0,0,0-.33-.46v-.46a1.15,1.15,0,0,0-.87-1.08l-2-.44a.17.17,0,0,0-.1-.13.15.15,0,0,0-.18.05.86.86,0,0,1-.44-.46.15.15,0,0,0,.05-.18.31.31,0,0,0-.13-.13v-.77a.14.14,0,0,0,.1-.15.17.17,0,0,0-.1-.15v-.8a.14.14,0,0,0,.1-.15.17.17,0,0,0-.1-.15V103a.15.15,0,1,0-.31,0v.28l-.72.08h0l-2.88.31a.17.17,0,0,0-.15.15v3.06a1.44,1.44,0,0,0-.44,1V109a.16.16,0,0,0-.13.15v1a.17.17,0,0,0,.15.15h1.34v1.21a.17.17,0,0,0,.15.15h2.72a.17.17,0,0,0,.15-.15v-1.21H25v1.21a.17.17,0,0,0,.15.15h1.8a.17.17,0,0,0,.15-.15v-.72a.15.15,0,1,0-.31,0v.56H25.32v-1.05h2.11v1.21a.17.17,0,0,0,.15.15h.64a.91.91,0,0,0,.9-.9.15.15,0,1,1,.31,0,1.21,1.21,0,0,1-1.21,1.21H20v-.33h1.13a.17.17,0,0,0,.15-.15v-.72a.15.15,0,1,0-.31,0v.56H19.85a.17.17,0,0,0-.15.15v.64a.17.17,0,0,0,.15.15h8.37a1.55,1.55,0,0,0,1.54-1.54C29.79,110.55,29.58,110.34,29.3,110.34ZM20.62,108a1.14,1.14,0,0,1,.39-.85.2.2,0,0,0,.05-.13v-3l2.57-.28v2.88a2,2,0,0,0,.44,1.23,2.15,2.15,0,0,0,1,.67h.05a.16.16,0,0,0,.05-.31,1.7,1.7,0,0,1-.82-.56,1.72,1.72,0,0,1-.36-1v-2.9l.54-.05v.77h-.05a.15.15,0,0,0,0,.31h.05v.77h-.05a.15.15,0,0,0,0,.31h.05v.82l-.08,0a.2.2,0,0,0-.13.21.16.16,0,0,0,.15.13h.05l.05,0a1.25,1.25,0,0,0,.64.67l0,.05a.17.17,0,0,0,.1.21h.05a.17.17,0,0,0,.15-.1l0-.08,2,.46a.85.85,0,0,1,.62.77v.41H24.88a3.15,3.15,0,0,1-.49-.05l-1.23-.23a5.91,5.91,0,0,0-.67-.08H20.64v-1Zm3.75,3.42H22v-1.05h.69a.17.17,0,0,0,.15-.15V110l1.36.26.18,0v1.1Zm.49-1.36a5.43,5.43,0,0,1-.62-.05l-1.54-.31h0a.15.15,0,0,0-.1,0,.2.2,0,0,0-.05.13V110h-2v-.67h2a5.43,5.43,0,0,1,.62.05l1.23.23a3.83,3.83,0,0,0,.54.05h3.39a.15.15,0,0,1,0,.31l-3.39,0Z"/><path class="cls-1" d="M46.48,148.22a.49.49,0,0,0-.49.49.57.57,0,0,1-.56.56h-.49v-1.05h.49a.49.49,0,0,0,.49-.49.49.49,0,0,0-.33-.46v-.46a1.15,1.15,0,0,0-.87-1.08l-2-.44a.17.17,0,0,0-.1-.13.15.15,0,0,0-.18.05.86.86,0,0,1-.44-.46.15.15,0,0,0,.05-.18.31.31,0,0,0-.13-.13v-.77a.14.14,0,0,0,.1-.15.17.17,0,0,0-.1-.15v-.8a.14.14,0,0,0,.1-.15.17.17,0,0,0-.1-.15v-1.39a.15.15,0,0,0-.31,0v.28l-.72.08h0l-2.88.31a.17.17,0,0,0-.15.15v3.06a1.44,1.44,0,0,0-.44,1v1.05a.16.16,0,0,0-.13.15v1a.17.17,0,0,0,.15.15H38.8v1.21a.17.17,0,0,0,.15.15h2.72a.17.17,0,0,0,.15-.15v-1.21h.31v1.21a.17.17,0,0,0,.15.15h1.8a.17.17,0,0,0,.15-.15v-.62a.15.15,0,0,0-.31,0v.56H42.47v-1.05h2.11v1.21a.17.17,0,0,0,.15.15h.64a.91.91,0,0,0,.9-.9.15.15,0,0,1,.31,0,1.21,1.21,0,0,1-1.21,1.21H37.16v-.33h1.13a.17.17,0,0,0,.15-.15v-.69a.15.15,0,0,0-.31,0v.56H37a.17.17,0,0,0-.15.15v.64a.17.17,0,0,0,.15.15h8.37a1.55,1.55,0,0,0,1.54-1.54A.43.43,0,0,0,46.48,148.22Zm-8.68-2.36a1.14,1.14,0,0,1,.39-.85.2.2,0,0,0,.05-.13v-3l2.57-.28v2.85a2,2,0,0,0,.44,1.23,2.15,2.15,0,0,0,1,.67h.05a.16.16,0,0,0,.05-.31,1.7,1.7,0,0,1-.82-.56,1.72,1.72,0,0,1-.36-1v-2.9l.54-.05v.77h-.05a.15.15,0,1,0,0,.31h.05v.77h-.05a.15.15,0,1,0,0,.31h.05v.82l-.08,0a.2.2,0,0,0-.13.21.16.16,0,0,0,.15.13h.05l.05,0a1.25,1.25,0,0,0,.64.67l0,.05a.17.17,0,0,0,.1.21h.05a.17.17,0,0,0,.15-.1l0-.08,2,.46a.85.85,0,0,1,.62.77v.41H42.06a3.15,3.15,0,0,1-.49-.05l-1.23-.23a5.91,5.91,0,0,0-.67-.08H37.8Zm3.75,3.42H39.16v-1.05h.69a.17.17,0,0,0,.15-.15v-.18l1.36.26.18,0v1.1Zm.49-1.36a5.43,5.43,0,0,1-.62-.05l-1.54-.31h0a.15.15,0,0,0-.1,0,.2.2,0,0,0-.05.13v.21h-2v-.67h2a5.43,5.43,0,0,1,.62.05l1.23.23a3.83,3.83,0,0,0,.54.05h3.39a.15.15,0,1,1,0,.31l-3.39,0Z"/><path class="cls-1" d="M8.22,123.7h0v-.05h0l-2.31-.33-1-2.11h-.1l-1,2.11-2.31.33H1.36v.05h0v0h0v0h0L3,125.39l-.39,2.31h0v0h0v0h0v0h.08l2.08-1.1,2.08,1.1h0a.09.09,0,0,0,.08,0H7v0H7v0H7v0H7l-.39-2.31,1.67-1.64h0v0h0c-.05,0-.05,0-.05,0h0s0,0,0,0Zm-4.67-.21.82,1.13-2.64-.87Zm-1.9.46,2.64.87L3,125.26Zm2.9,2.62-1.64.87.64-.9c0-.05,0-.13,0-.15s-.13,0-.15,0l-.64.9L3,125.49l1.34-.44-.72,1c0,.05,0,.13,0,.15a.09.09,0,0,0,.08,0,.19.19,0,0,0,.1-.05l.72-1v1.39Zm0-2.11-.82-1.13.82-1.67Zm.23-2.77.82,1.67-.82,1.13Zm0,4.88v-1.39l1.64,2.26Zm1.82.72L5,125l1.34.44Zm-.23-2L5,124.83l1.18-.39a.12.12,0,1,0-.08-.23L5,124.59l.82-1.13,1.82.26-1.05.33a.12.12,0,0,0-.08.15c0,.05.05.08.1.08h0L7.65,124Z"/><path class="cls-1" d="M26.27,126.08l-3.08-.85.92-1.62a.24.24,0,0,0,0-.26.2.2,0,0,0-.26,0l-1.62.92-.85-3.08a.21.21,0,0,0-.41,0l-.85,3.08-1.62-.92a.24.24,0,0,0-.26,0,.2.2,0,0,0,0,.26l.92,1.62-3.08.85a.21.21,0,0,0,0,.41l3.08.85L18.21,129a.24.24,0,0,0,0,.26.2.2,0,0,0,.26,0l1.59-.9.87,5.73a.22.22,0,0,0,.21.18.2.2,0,0,0,.21-.18l.39-2.59a.21.21,0,1,0-.41-.05l-.18,1.23-.69-4.6.69-1.31.69,1.31-.39,2.52a.21.21,0,1,0,.41.05l.36-2.29,1.59.9a.24.24,0,0,0,.26,0,.2.2,0,0,0,0-.26l-.92-1.62,3.08-.85a.21.21,0,0,0,0-.41Zm-4-1.39,1.16-.64-.64,1.16-1.05.56Zm-3.31-.64,1.16.64.56,1.05-1.05-.56Zm1.16,3.8-1.16.64.64-1.16,1.05-.56Zm-.69-.87-2.52-.69,2.52-.69,1.31.69Zm1.08-2.47.69-2.52.69,2.52-.69,1.31Zm2.9,4-1.16-.64-.56-1.05,1.05.56ZM22.9,127l-1.31-.69,1.31-.69,2.52.69Z"/><path class="cls-1" d="M12.2,60.11l-1.08-2.18,1.41-.28a.16.16,0,0,0,.13-.15.17.17,0,0,0-.1-.15l-1.36-.46,1.34-2c.05-.05,0-.13,0-.21a.11.11,0,0,0-.18,0L10.14,55.7l-.28-1.41a.16.16,0,0,0-.15-.13.17.17,0,0,0-.15.1l-.46,1.36-2-1.34c-.05-.05-.13,0-.21,0a.13.13,0,0,0,0,.18l1.08,2.18L6.5,57a.16.16,0,0,0-.13.15.17.17,0,0,0,.1.15l1.34.46L5,61.12a.16.16,0,0,0,.21.23l1.69-1.08A.17.17,0,1,0,6.7,60l-.8.51,2.26-2.72,1.1-.26-.41,1.05L7.21,59.63a.17.17,0,1,0,.18.28l1.49-1,.28,1.36a.16.16,0,0,0,.15.13.17.17,0,0,0,.15-.1L9.94,59l2,1.34c.05.05.13,0,.21,0A.13.13,0,0,0,12.2,60.11Zm-1.26-3,1,.33-1,.21-.85-.33ZM9.65,54.88l.21,1-.33.85-.21-.9ZM8.06,57.44l-1-.33,1-.21.85.33Zm.15-.82-.87-1.8L9,55.93,9.27,57Zm2-.62,1.8-.87-1.1,1.67-1.1.26Zm-.82,3.67-.21-1,.33-.85.21.9ZM10,58.62l-.26-1.1,1.05.39.87,1.8Z"/><path class="cls-1" d="M62.91,83.58a3.61,3.61,0,0,0-.64-2A3.85,3.85,0,0,0,61,80.45a.26.26,0,0,0,.1-.13.63.63,0,0,0,.05-.44.5.5,0,0,0,0-.77.54.54,0,0,0-.05-.44,1.34,1.34,0,0,1-.62-.62A.52.52,0,0,0,60,78a.5.5,0,0,0-.77,0,.38.38,0,0,0-.18,0,.5.5,0,0,0-.26.08,1.34,1.34,0,0,1-.62.62.63.63,0,0,0-.05.44.5.5,0,0,0,0,.77.54.54,0,0,0,.05.44.56.56,0,0,0,.1.13A3.41,3.41,0,0,0,57,81.63a3.68,3.68,0,0,0-.64,2,.7.7,0,0,0-.56.69v1.67a.69.69,0,0,0,.69.69h6.24a.69.69,0,0,0,.69-.69V84.28A.56.56,0,0,0,62.91,83.58Zm-4.6-4.06a.2.2,0,0,1,.13-.21s.08-.05.08-.1a.23.23,0,0,0,0-.13.3.3,0,0,1,0-.26.26.26,0,0,1,.21-.13h0c.05,0,.08,0,.1-.05a.19.19,0,0,0,.05-.1.25.25,0,0,1,.1-.23.19.19,0,0,1,.13,0,.2.2,0,0,1,.13.05.19.19,0,0,0,.13,0c.05,0,.08-.05.1-.08a.23.23,0,0,1,.21-.13.2.2,0,0,1,.21.13s.05.08.1.08a.23.23,0,0,0,.13,0c.05,0,.08-.05.13-.05a.23.23,0,0,1,.13,0,.21.21,0,0,1,.1.23c0,.05,0,.08.05.1s.08.05.1.05h0a.26.26,0,0,1,.21.13.2.2,0,0,1,0,.26.19.19,0,0,0,0,.13c0,.05.05.08.08.1a.23.23,0,0,1,.13.21.2.2,0,0,1-.13.21s-.08.05-.08.1a.23.23,0,0,0,0,.13.3.3,0,0,1,0,.26.26.26,0,0,1-.21.13h-.05l0,0h0v0h0a.25.25,0,0,1-.1.23.19.19,0,0,1-.13,0,.2.2,0,0,1-.13-.05.19.19,0,0,0-.13,0c-.05,0-.08.05-.1.08a.23.23,0,0,1-.21.13.2.2,0,0,1-.21-.13s-.05-.08-.1-.08h0a.09.09,0,0,0-.08,0c-.05,0-.08.05-.13.05a.23.23,0,0,1-.13,0,.21.21,0,0,1-.1-.23h0v0h0l0,0h-.08a.26.26,0,0,1-.21-.13.2.2,0,0,1,0-.26.19.19,0,0,0,0-.13c0-.05-.05-.08-.08-.1C58.37,79.68,58.32,79.6,58.32,79.53Zm4.88,6.42a.41.41,0,0,1-.41.41H56.54a.41.41,0,0,1-.41-.41V84.28a.41.41,0,0,1,.41-.41h.36V86a.13.13,0,0,0,.26,0V83.87h.77v.69a.13.13,0,0,0,.26,0v-.69H59V86a.13.13,0,0,0,.26,0V83.87H60V86a.13.13,0,0,0,.26,0V83.87H61V86a.13.13,0,0,0,.26,0V83.87h.1a.13.13,0,0,0,0-.26h-4.8a3.4,3.4,0,0,1,1.93-2.93.63.63,0,0,0,.23.28.52.52,0,0,0,.44.05.5.5,0,0,0,.77,0,.38.38,0,0,0,.18,0,.5.5,0,0,0,.26-.08.52.52,0,0,0,.23-.28,3.37,3.37,0,0,1,1.93,2.93h-.59a.13.13,0,1,0,0,.26H62V86a.13.13,0,0,0,.26,0V83.87h.36a.41.41,0,0,1,.41.41l.13,1.67Z"/><path class="cls-1" d="M9.6,143.65a.13.13,0,0,0,0,.18l.44.62a.13.13,0,0,0,.21-.15l-.44-.62A.16.16,0,0,0,9.6,143.65Z"/><path class="cls-1" d="M12.74,139.8a3.29,3.29,0,0,0-1.64-.8,3.21,3.21,0,0,0-1.57.1.33.33,0,0,0,0-.15.4.4,0,0,0-.26-.28.61.61,0,0,0-.13-.36.48.48,0,0,0-.36-.13.37.37,0,0,0-.31-.23.53.53,0,0,0-.39.08.41.41,0,0,0-.39-.05.35.35,0,0,0-.21.13.22.22,0,0,0-.08.13.61.61,0,0,0-.36.13.48.48,0,0,0-.13.36.45.45,0,0,0-.13.1.56.56,0,0,0-.13.21.53.53,0,0,0,.08.39.41.41,0,0,0-.05.39.4.4,0,0,0,.26.28.61.61,0,0,0,.13.36.48.48,0,0,0,.36.13.37.37,0,0,0,.31.23.16.16,0,0,0,.15,0,3.24,3.24,0,0,0-.08,1.57A3.29,3.29,0,0,0,8.65,144a.66.66,0,0,0,.08.8l1.08,1.05a.64.64,0,0,0,.87,0l3.9-4a.64.64,0,0,0,0-.87l-1.08-1.05A.56.56,0,0,0,12.74,139.8Zm-5.5.39a.25.25,0,0,1-.05-.23s0-.08,0-.1-.05-.05-.08-.05a.22.22,0,0,1-.18-.15.2.2,0,0,1,.05-.21l0,0a.13.13,0,0,0,.05-.1.19.19,0,0,0-.05-.1.17.17,0,0,1-.08-.21.18.18,0,0,1,.15-.15s.08,0,.08-.05a.08.08,0,0,0,0-.1.26.26,0,0,1,.05-.23.25.25,0,0,1,.23-.05s.08,0,.1,0,.05-.05.05-.08,0-.08.05-.13a.13.13,0,0,1,.1-.05.17.17,0,0,1,.21.08.13.13,0,0,0,.1.05.19.19,0,0,0,.1-.05l0,0a.2.2,0,0,1,.21-.05.23.23,0,0,1,.15.15s0,.08.05.08a.08.08,0,0,0,.1,0,.26.26,0,0,1,.23.05.25.25,0,0,1,.05.23s0,.08,0,.1.05.05.08.05a.22.22,0,0,1,.18.15.2.2,0,0,1-.05.21l0,0a0,0,0,0,0,0,0h0v0h0a.17.17,0,0,1,.08.21.18.18,0,0,1-.15.15s-.08,0-.08.05a.08.08,0,0,0,0,.1.26.26,0,0,1-.05.23.25.25,0,0,1-.23.05s-.08,0-.1,0a0,0,0,0,0,0,0,.09.09,0,0,0,0,.08c0,.05,0,.08-.05.13a.13.13,0,0,1-.1.05.17.17,0,0,1-.21-.08h0l0,0a.2.2,0,0,1-.21.05.23.23,0,0,1-.15-.15s0-.08-.05-.08a.08.08,0,0,0-.1,0C7.39,140.26,7.32,140.23,7.24,140.18Zm7.16.9a.37.37,0,0,1,0,.54l-3.9,4a.37.37,0,0,1-.54,0l-1.08-1.05a.37.37,0,0,1,0-.54l.23-.23,1.34,1.31a.13.13,0,1,0,.18-.18L9.29,143.6l.49-.49.44.44a.13.13,0,1,0,.18-.18l-.44-.44.49-.49,1.34,1.31a.13.13,0,0,0,.18-.18l-1.34-1.31.46-.46,1.34,1.31a.13.13,0,0,0,.18-.18l-1.34-1.31.49-.49,1.34,1.31a.13.13,0,0,0,.18-.18L11.94,141l.08-.08a.13.13,0,1,0-.18-.18l-3,3.06a3,3,0,0,1-.64-3.06.49.49,0,0,0,.33,0,.35.35,0,0,0,.21-.13.22.22,0,0,0,.08-.13.61.61,0,0,0,.36-.13.48.48,0,0,0,.13-.36.45.45,0,0,0,.13-.1.56.56,0,0,0,.13-.21.42.42,0,0,0,0-.31,3.07,3.07,0,0,1,3.08.59l-.39.39a.13.13,0,0,0,.18.18l.08-.08,1.34,1.31a.13.13,0,1,0,.18-.18l-1.34-1.31.23-.23a.37.37,0,0,1,.54,0l1,1.05Z"/><path class="cls-1" d="M59.29,165.42a3.29,3.29,0,0,0-1.64-.8,3.21,3.21,0,0,0-1.57.1.33.33,0,0,0,0-.15.4.4,0,0,0-.26-.28.61.61,0,0,0-.13-.36.48.48,0,0,0-.36-.13.37.37,0,0,0-.31-.23.53.53,0,0,0-.39.08.41.41,0,0,0-.39-.05.35.35,0,0,0-.21.13.22.22,0,0,0-.08.13.61.61,0,0,0-.36.13.5.5,0,0,1-.26.46.56.56,0,0,0-.13.21.53.53,0,0,0,.08.39.41.41,0,0,0-.05.39.4.4,0,0,0,.26.28.61.61,0,0,0,.13.36.48.48,0,0,0,.36.13.37.37,0,0,0,.31.23.16.16,0,0,0,.15,0,3.24,3.24,0,0,0-.08,1.57,3.29,3.29,0,0,0,.85,1.62.66.66,0,0,0,.08.8l1.08,1.05a.64.64,0,0,0,.87,0l3.9-4a.64.64,0,0,0,0-.87l-1.08-1.05A.53.53,0,0,0,59.29,165.42Zm-5.47.39a.25.25,0,0,1-.05-.23s0-.08,0-.1-.05-.05-.08-.05a.22.22,0,0,1-.18-.15.2.2,0,0,1,.05-.21l0,0a.13.13,0,0,0,.05-.1.19.19,0,0,0-.05-.1.17.17,0,0,1-.08-.21.18.18,0,0,1,.15-.15s.08,0,.08-.05a.08.08,0,0,0,0-.1.26.26,0,0,1,.05-.23A.25.25,0,0,1,54,164s.08,0,.1,0,.05-.05.05-.08,0-.08.05-.13a.13.13,0,0,1,.1-.05.17.17,0,0,1,.21.08.13.13,0,0,0,.1.05.19.19,0,0,0,.1-.05l0,0a.2.2,0,0,1,.21-.05.23.23,0,0,1,.15.15s0,.08.05.08a.08.08,0,0,0,.1,0,.26.26,0,0,1,.23.05.25.25,0,0,1,.05.23s0,.08,0,.1.05.05.08.05a.22.22,0,0,1,.18.15.2.2,0,0,1-.05.21l0,0a0,0,0,0,0,0,0h0v0h0a.17.17,0,0,1,.08.21.18.18,0,0,1-.15.15s-.08,0-.08.05a.08.08,0,0,0,0,.1.26.26,0,0,1-.05.23.25.25,0,0,1-.23.05s-.08,0-.1,0a0,0,0,0,0,0,0,.09.09,0,0,0,0,.08c0,.05,0,.08-.05.13a.13.13,0,0,1-.1.05.17.17,0,0,1-.21-.08h0l0,0a.2.2,0,0,1-.21.05.23.23,0,0,1-.15-.15s0-.08-.05-.08a.08.08,0,0,0-.1,0C54,165.89,53.87,165.86,53.82,165.81Zm7.14.9a.37.37,0,0,1,0,.54l-3.9,4a.37.37,0,0,1-.54,0l-1.08-1.05a.37.37,0,0,1,0-.54l.23-.23L57,170.71a.13.13,0,0,0,.18-.18l-1.34-1.31.49-.49.44.44A.13.13,0,1,0,57,169l-.44-.44.49-.49,1.34,1.31a.13.13,0,0,0,.18-.18l-1.34-1.31.49-.49L59,168.71a.13.13,0,0,0,.18-.18l-1.34-1.31.49-.49L59.68,168a.13.13,0,0,0,.18-.18l-1.34-1.31.08-.08a.13.13,0,1,0-.18-.18l-3,3.06a3,3,0,0,1-.64-3.06.49.49,0,0,0,.33,0,.35.35,0,0,0,.21-.13.22.22,0,0,0,.08-.13.61.61,0,0,0,.36-.13.48.48,0,0,0,.13-.36.45.45,0,0,0,.13-.1.56.56,0,0,0,.13-.21.42.42,0,0,0,0-.31,3.07,3.07,0,0,1,3.08.59l-.39.39a.13.13,0,0,0,.18.18l.08-.08,1.34,1.31a.13.13,0,0,0,.18-.18l-1.34-1.31.23-.23a.37.37,0,0,1,.54,0l1,1.08Z"/><path class="cls-1" d="M22.24,41.75l-.33-.23a0,0,0,0,0-.08,0l-.62.21-.18-.1c-.05,0-.08,0-.1,0s0,.08,0,.1l.08.05-.54.31-.33-.18V41.7l.33-.18.18.1c.05,0,.08,0,.1,0s0-.08,0-.1l-.08-.05.44-.26.54.15h0s.08,0,.08-.05a.13.13,0,0,0-.05-.1l-.39-.1.28-.15.26.08h0S22,41,22,41a.13.13,0,0,0-.05-.1l-.1,0L22,40.7a.07.07,0,0,0-.08-.13l-.21.13,0-.1a.08.08,0,0,0-.15-.05l-.08.26-.28.15.1-.39a.08.08,0,0,0-.15-.05l-.15.54-.44.26v-.64l.49-.44a.09.09,0,0,0,0-.08l0-.39s0-.05-.05-.08a0,0,0,0,0-.08,0l-.36.18a.06.06,0,0,0-.05.05l-.13.64-.54.31v-.51l.39-.39a.09.09,0,0,0-.13-.13l-.28.28V39.8l.21-.21a.09.09,0,1,0-.13-.13l-.08.08v-.26a.08.08,0,1,0-.15,0v.26l-.08-.08a.09.09,0,0,0-.13.13l.21.21v.33l-.28-.28a.09.09,0,0,0-.13.13l.39.39v.49l-.54-.31L19,39.9a.06.06,0,0,0-.05-.05l-.36-.18h-.08s-.05,0-.05.08l0,.39a.09.09,0,0,0,0,.08l.49.44v.64L18.51,41l-.15-.54c0-.05-.05-.08-.1-.05s-.08.05-.05.1l.1.39L18,40.78l-.08-.26c0-.05-.05-.08-.1-.05s-.08.05-.05.1l0,.1-.21-.13c-.05,0-.08,0-.1,0s0,.08,0,.1l.21.13-.1,0c-.05,0-.08.05-.05.1s.05.05.08.05h0l.26-.08.28.15-.39.1c-.05,0-.08.05-.05.1s.05.05.08.05h0l.54-.15.44.26-.56.31-.62-.21h-.08l-.33.23a.09.09,0,0,0,0,.08s0,.05,0,.08l.33.23s0,0,.05,0h0l.62-.21.56.31-.44.26-.54-.15a.08.08,0,1,0-.05.15l.39.1-.28.15-.26-.08a.13.13,0,0,0-.1.05s0,.08.05.1l.1,0-.21.13a.06.06,0,0,0,0,.1s.05.05.08.05h.05l.21-.13,0,.1a.13.13,0,0,0,.05.1h0s.08,0,.08-.05l.08-.26.28-.15-.1.39a.13.13,0,0,0,.05.1h0s.08,0,.08-.05l.15-.54.44-.26v.64l-.49.44a.09.09,0,0,0,0,.08l0,.39s0,.05.05.08h.08l.36-.18a.06.06,0,0,0,.05-.05l.13-.64.54-.31v.49l-.39.39a.09.09,0,1,0,.13.13l.28-.28v.33l-.21.21a.09.09,0,0,0,.13.13l.08-.08v.26a.08.08,0,1,0,.15,0v-.26l.08.08s0,0,.05,0,.05,0,.05,0a.11.11,0,0,0,0-.13l-.21-.21v-.33l.28.28s0,0,.05,0,.05,0,.05,0a.11.11,0,0,0,0-.13l-.39-.39v-.49l.54.31.13.64a.06.06,0,0,0,.05.05l.36.18H21s.05,0,.05-.08l0-.39a.09.09,0,0,0,0-.08l-.49-.44v-.64l.44.26.15.54s.05.05.08.05h0c.05,0,.08-.05.05-.1l-.1-.39.28.15.08.26s.05.05.08.05h0c.05,0,.08-.05.05-.1l0-.1.21.13H22s.05,0,.08-.05,0-.08,0-.1l-.21-.13.1,0c.05,0,.08-.05.05-.1s-.05-.08-.1-.05l-.26.08-.28-.15.39-.1c.05,0,.08-.05.05-.1s-.05-.08-.1-.05l-.54.15-.44-.26.56-.31.62.21h0s0,0,.05,0l.33-.23a.09.09,0,0,0,0-.08C22.26,41.78,22.26,41.75,22.24,41.75ZM20.72,40l.21-.1,0,.23-.31.26Zm-2.05.13,0-.23.21.1.08.39Zm-.9,1.82-.21-.13.21-.13.39.13Zm1.13,1.72-.21.1,0-.23.31-.26Zm1-2.59.54-.31v.62l-.33.18-.21-.13v-.36Zm-.15,0v.39l-.21.13-.33-.18v-.62Zm-.62,1.05-.54-.31.54-.31.33.18v.23Zm.08.77v-.62l.33-.18.21.13v.39h0ZM19.8,42l-.21-.13v-.23l.21-.13.21.13v.23Zm.08.54v-.39l.21-.13.33.18v.62Zm1.05,1,0,.23-.21-.1-.08-.39Zm.92-1.59-.39-.13.39-.13.21.13Z"/><path class="cls-1" d="M48.71,77.5l-.33-.23a0,0,0,0,0-.08,0l-.62.21-.18-.1c-.05,0-.08,0-.1,0s0,.08,0,.1l.08.05-.54.31-.33-.18v-.23l.33-.18.18.1c.05,0,.08,0,.1,0s0-.08,0-.1l-.08-.05.44-.26.54.15h0s.08,0,.08-.05a.13.13,0,0,0-.05-.1l-.39-.1.28-.15.26.08h0s.08,0,.08-.05a.13.13,0,0,0-.05-.1l-.1,0,.21-.13a.07.07,0,0,0-.08-.13l-.21.13,0-.1a.08.08,0,1,0-.15-.05l-.08.26-.28.15.1-.39a.08.08,0,1,0-.15-.05l-.15.54-.44.26v-.64l.49-.44a.09.09,0,0,0,0-.08l0-.39s0-.05-.05-.08a0,0,0,0,0-.08,0l-.36.18a.06.06,0,0,0-.05.05l-.13.64-.54.31v-.49l.39-.39a.09.09,0,0,0-.13-.13l-.28.28v-.33l.21-.21a.09.09,0,0,0-.13-.13l-.08.08v-.26a.08.08,0,0,0-.15,0v.26l-.08-.08a.09.09,0,0,0-.13.13l.21.21v.33l-.28-.28a.09.09,0,1,0-.13.13l.39.39v.49l-.54-.31-.13-.64a.06.06,0,0,0-.05-.05l-.36-.18H45s-.05,0-.05.08l0,.39a.09.09,0,0,0,0,.08l.49.44v.64L45,76.81l-.15-.54c0-.05-.05-.08-.1-.05s-.08.05-.05.1l.1.39-.28-.15-.08-.26c0-.05-.05-.08-.1-.05s-.08.05-.05.1l0,.1-.21-.13c-.05,0-.08,0-.1,0s0,.08,0,.1l.21.13-.1,0c-.05,0-.08.05-.05.1s.05.05.08.05h0l.26-.08.28.15-.39.1c-.05,0-.08.05-.05.1s.05.05.08.05h0l.54-.15.44.26-.56.31-.62-.21h-.08l-.33.23a.09.09,0,0,0,0,.08s0,.05,0,.08l.33.23s0,0,.05,0h0l.62-.21.56.31-.44.26-.54-.15a.08.08,0,0,0-.05.15l.39.1-.28.15-.26-.08a.13.13,0,0,0-.1.05s0,.08.05.1l.1,0-.21.13a.06.06,0,0,0,0,.1s.05.05.08.05h.05l.21-.13,0,.1a.13.13,0,0,0,.05.1h0s.08,0,.08-.05l.08-.26.28-.15-.1.39a.13.13,0,0,0,.05.1h0s.08,0,.08-.05l.15-.54.44-.26v.64l-.49.44a.09.09,0,0,0,0,.08l0,.39s0,.05.05.08h.08l.36-.18a.06.06,0,0,0,.05-.05l.13-.64.54-.31v.49l-.39.39a.09.09,0,1,0,.13.13l.28-.28v.33l-.21.21a.09.09,0,0,0,.13.13l.08-.08v.26a.08.08,0,0,0,.15,0v-.26l.08.08s0,0,.05,0,.05,0,.05,0a.11.11,0,0,0,0-.13l-.21-.21v-.33l.28.28s0,0,.05,0,.05,0,.05,0a.11.11,0,0,0,0-.13l-.39-.39v-.49l.54.31.13.64a.06.06,0,0,0,.05.05l.36.18h.08s.05,0,.05-.08l0-.39a.09.09,0,0,0,0-.08L47,78.83v-.64l.44.26.15.54s.05.05.08.05h0c.05,0,.08-.05.05-.1l-.1-.39.28.15L48,79s.05.05.08.05h0c.05,0,.08-.05.05-.1l0-.1.21.13h.05s.05,0,.08-.05,0-.08,0-.1l-.21-.13.1,0c.05,0,.08-.05.05-.1s-.05-.08-.1-.05l-.26.08-.28-.15.39-.1c.05,0,.08-.05.05-.1s-.05-.08-.1-.05l-.54.15L47.15,78l.56-.31.62.21h0s0,0,.05,0l.33-.23a.09.09,0,0,0,0-.08C48.74,77.55,48.74,77.52,48.71,77.5ZM47.2,75.73l.21-.1,0,.23-.31.26Zm-2.05.13,0-.23.21.1.08.39Zm-.92,1.85L44,77.58l.21-.13.39.13Zm1.16,1.69-.21.1,0-.23.31-.26Zm1-2.59.54-.31v.62l-.33.18-.21-.13v-.36Zm-.15,0v.39l-.21.13-.33-.18v-.62Zm-.62,1.08L45,77.58l.54-.31.33.18v.23Zm.08.77V78l.33-.18.21.13v.39h0Zm.62-.85-.21-.13v-.23l.21-.13.21.13v.23Zm.08.51v-.39l.21-.13.33.18v.62Zm1.05,1,0,.23-.21-.1L47.09,79Zm.92-1.57-.39-.13.39-.13.21.13Z"/><path class="cls-1" d="M35.85,129.14l-.33-.23a0,0,0,0,0-.08,0l-.62.21-.18-.1c-.05,0-.08,0-.1,0s0,.08,0,.1l.08.05-.54.31-.33-.18v-.23l.33-.18.18.1c.05,0,.08,0,.1,0s0-.08,0-.1l-.08-.05.44-.26.54.15h0s.08,0,.08-.05a.13.13,0,0,0-.05-.1l-.39-.1.28-.15.26.08h0s.08,0,.08-.05a.13.13,0,0,0-.05-.1l-.1,0,.21-.13a.07.07,0,1,0-.08-.13l-.21.13,0-.1a.08.08,0,1,0-.15-.05l-.08.26-.28.15.1-.39a.08.08,0,1,0-.15-.05l-.15.54-.44.26v-.64l.49-.44a.09.09,0,0,0,0-.08l0-.39s0-.05-.05-.08a0,0,0,0,0-.08,0l-.36.18a.06.06,0,0,0-.05.05L34,128l-.54.31v-.49l.39-.39a.09.09,0,0,0-.13-.13l-.28.28v-.33l.21-.21a.09.09,0,0,0-.13-.13l-.08.08v-.26a.08.08,0,0,0-.15,0V127l-.08-.08a.09.09,0,0,0-.13.13l.21.21v.33l-.28-.28a.09.09,0,0,0-.13.13l.39.39v.49l-.54-.31-.13-.64a.06.06,0,0,0-.05-.05l-.36-.18h-.08s-.05,0-.05.08l0,.39a.09.09,0,0,0,0,.08l.49.44v.64l-.44-.26-.15-.54c0-.05-.05-.08-.1-.05s-.08.05-.05.1l.1.39-.28-.15-.08-.26c0-.05-.05-.08-.1-.05s-.08.05-.05.1l0,.1-.21-.13c-.05,0-.08,0-.1,0s0,.08,0,.1l.21.13-.1,0c-.05,0-.08.05-.05.1s.05.05.08.05h0l.26-.08.28.15-.39.1c-.05,0-.08.05-.05.1s.05.05.08.05h0l.54-.15.44.26-.56.31-.62-.21h-.08l-.33.23a.09.09,0,0,0,0,.08s0,.05,0,.08l.33.23s0,0,.05,0h0l.62-.21.56.31-.44.26-.54-.15a.13.13,0,0,0-.1.05s0,.08.05.1l.39.1-.28.15-.26-.08a.13.13,0,0,0-.1.05s0,.08.05.1l.1,0-.21.13a.06.06,0,0,0,0,.1s.05.05.08.05h.05l.21-.13,0,.1a.13.13,0,0,0,.05.1h0s.08,0,.08-.05l.08-.26.28-.15-.05.31a.13.13,0,0,0,.05.1h0s.08,0,.08-.05l.15-.54.44-.26v.64l-.49.44a.09.09,0,0,0,0,.08l0,.39s0,.05.05.08h.08l.36-.18a.06.06,0,0,0,.05-.05l.13-.64.54-.31v.49l-.39.39a.09.09,0,0,0,.13.13l.28-.28v.33l-.21.21a.09.09,0,0,0,.13.13l.08-.08v.26a.08.08,0,0,0,.15,0v-.26l.08.08s0,0,.05,0,.05,0,.05,0a.11.11,0,0,0,0-.13l-.21-.21v-.33l.28.28s0,0,.05,0,.05,0,.05,0a.11.11,0,0,0,0-.13l-.39-.39v-.49l.54.31.13.64a.06.06,0,0,0,.05.05l.36.18h.08s.05,0,.05-.08l0-.39a.09.09,0,0,0,0-.08l-.49-.44v-.64l.44.26.15.54s.05.05.08.05h0c.05,0,.08-.05.05-.1l-.1-.39.28.15.08.26s.05.05.08.05h0c.05,0,.08-.05.05-.1l0-.1.21.13h.05s.05,0,.08-.05,0-.08,0-.1l-.21-.13.1,0c.05,0,.08-.05.05-.1s-.05-.08-.1-.05l-.26.08L35,130l.39-.1c.05,0,.08-.05.05-.1s-.05-.08-.1-.05l-.54.15-.44-.26.56-.31.62.21h0s0,0,.05,0l.33-.23a.09.09,0,0,0,0-.08S35.87,129.17,35.85,129.14Zm-1.54-1.77.21-.1,0,.23-.31.26Zm-2,.13,0-.23.21.1.08.39Zm-.92,1.85-.21-.13.21-.13.39.13ZM32.48,131l-.21.1,0-.23.31-.26Zm1-2.59.54-.31v.62l-.33.21-.21-.13v-.39Zm-.15,0v.39l-.21.13-.33-.18v-.62Zm-.62,1.08-.54-.31.54-.31.33.18v.23Zm.08.77v-.62l.33-.18.21.13V130h0Zm.62-.85-.21-.13v-.23l.21-.13.21.13v.23Zm.08.54v-.39l.21-.13.33.18v.62Zm1.05.92,0,.23-.21-.1-.08-.39Zm.92-1.57-.39-.13.39-.13.21.13Z"/><path class="cls-1" d="M30.71,168.2l-.39-.26a0,0,0,0,0-.08,0l-.72.23-.21-.13a.09.09,0,1,0-.1.15l.1.05-.64.36-.39-.23v-.28l.39-.23.21.1a.09.09,0,1,0,.1-.15l-.1-.05.51-.28.62.15h0c.05,0,.08,0,.1-.08s0-.1-.08-.13l-.44-.13.33-.18.31.08h0c.05,0,.08,0,.1-.08s0-.1-.08-.13l-.13,0,.26-.15c.05,0,.05-.08,0-.13s-.08-.05-.13,0l-.26.15,0-.13c0-.05,0-.1-.08-.13s-.1,0-.13.08l-.08.31-.33.18.13-.44c0-.05,0-.1-.08-.13s-.1,0-.13.08l-.15.62-.51.28v-.74l.56-.51a.09.09,0,0,0,0-.08l0-.46s0-.05-.05-.08-.05,0-.1,0l-.41.21s-.05,0-.05.08l-.15.74-.64.39v-.59l.46-.46a.09.09,0,0,0-.13-.13l-.31.31v-.26l.23-.23a.09.09,0,1,0-.13-.13l-.1.1v-.28a.1.1,0,1,0-.21,0v.28l-.1-.1a.09.09,0,1,0-.13.13l.23.23v.39l-.31-.31a.09.09,0,1,0-.13.13l.46.46v.59l-.64-.39-.15-.74s0-.05-.05-.08l-.41-.21s-.05,0-.1,0-.05.05-.05.08l0,.46a.09.09,0,0,0,0,.08l.56.51v.74l-.51-.28-.15-.62a.11.11,0,0,0-.21.05l.13.44-.33-.18-.08-.31a.11.11,0,0,0-.21.05l0,.13-.26-.15a.09.09,0,1,0-.1.15l.26.15-.13,0a.14.14,0,0,0-.08.13c0,.05.05.08.1.08h0l.31-.08.33.18-.44.13a.14.14,0,0,0-.08.13c0,.05.05.08.1.08h0l.62-.15.51.28-.64.36-.72-.23h-.08l-.39.26s-.05.05-.05.08,0,.05.05.08l.39.26s0,0,.05,0h0l.72-.23.64.36-.51.28-.62-.15c-.05,0-.1,0-.13.08s0,.1.08.13l.44.13-.33.18-.31-.08c-.05,0-.1,0-.13.08s0,.1.08.13l.13,0-.26.15c-.05,0-.05.08,0,.13s.05.05.08.05h.05l.26-.15,0,.13c0,.05,0,.1.08.13h0c.05,0,.08,0,.1-.08l.08-.31.33-.18-.13.44c0,.05,0,.1.08.13h0c.05,0,.08,0,.1-.08l.15-.62.51-.28v.74l-.56.51a.09.09,0,0,0,0,.08l0,.46s0,.05.05.08h.1l.41-.21s.05,0,.05-.08l.15-.74.64-.39v.59l-.46.46a.09.09,0,0,0,.13.13l.31-.31v.39l-.23.23a.09.09,0,0,0,.13.13l.1-.1v.28a.1.1,0,1,0,.21,0v-.28l.1.1a.13.13,0,0,0,.15,0,.12.12,0,0,0,0-.13l-.23-.23v-.39l.31.31a.13.13,0,0,0,.15,0,.12.12,0,0,0,0-.13l-.46-.46v-.59l.64.39.15.74s0,.05.05.08l.41.21h.1s.05-.05.05-.08l0-.46a.09.09,0,0,0,0-.08l-.56-.51v-.74l.51.28.15.62c0,.05.05.08.1.08h0a.14.14,0,0,0,.08-.13l-.13-.44.33.18L30,170c0,.05.05.08.1.08h0a.14.14,0,0,0,.08-.13l0-.13.26.15h.05s.08,0,.08-.05a.11.11,0,0,0,0-.13l-.26-.15.13,0a.11.11,0,1,0-.05-.21l-.31.08-.33-.18.44-.13a.11.11,0,1,0-.05-.21l-.62.15-.51-.28.64-.36.72.23h0s0,0,.05,0l.39-.26s.05-.05.05-.08S30.74,168.2,30.71,168.2Zm-1.77-2.08.26-.13,0,.28-.36.31Zm-2.39.15,0-.28.26.13.1.46Zm-1.08,2.16-.23-.15.23-.15.44.15Zm1.34,2-.26.13,0-.28.36-.31Zm1.16-3,.64-.36v.72l-.39.23-.23-.13,0-.46Zm-.18,0v.44l-.23.13-.39-.23V167Zm-.72,1.26-.64-.36.64-.36.39.23v.28Zm.08.9v-.72l.39-.23.23.13v.44h0Zm.72-1-.23-.13v-.28l.23-.13.23.13v.28Zm.1.62v-.44l.23-.13.39.23v.72Zm1.23,1.1,0,.28-.26-.13-.1-.46Zm1.05-1.82-.44-.15.44-.15.23.15Z"/><path class="cls-1" d="M47.25,47.51a.23.23,0,0,0-.23.23v.41a.23.23,0,1,0,.46,0v-.41A.23.23,0,0,0,47.25,47.51Z"/><path class="cls-1" d="M50,47.51a.23.23,0,0,0-.23.23v.41a.23.23,0,1,0,.46,0v-.41A.23.23,0,0,0,50,47.51Z"/><path class="cls-1" d="M53.75,47a1.28,1.28,0,0,0-.85-1.21,2.73,2.73,0,0,0-.92-2,3.39,3.39,0,0,0-2.16-.69,2.79,2.79,0,0,0-.67-.1h-1a2.31,2.31,0,0,0-1.39.46,2.18,2.18,0,0,0-.8,1.05.19.19,0,0,0-.1,0,.79.79,0,0,0-.64.74c0,.46-.05.92-.05,1.39a.62.62,0,0,0,.1.39l-.46,2.39a3.93,3.93,0,0,0,.82,3.21,3.85,3.85,0,0,0,6,0,4,4,0,0,0,.82-3.21l-.23-1.16.21,0A1.39,1.39,0,0,0,53.75,47Zm-1.34-1.28a1.5,1.5,0,0,0-.33.05c0-.15,0-.33,0-.49a.82.82,0,0,0-.64-.74.19.19,0,0,1-.1,0,2.19,2.19,0,0,0-.49-.77,2.79,2.79,0,0,1,.82.44A2.09,2.09,0,0,1,52.41,45.73Zm-4.29-2.21h1a1.81,1.81,0,0,1,1.59.92,14.64,14.64,0,0,0-4.24,0A1.89,1.89,0,0,1,48.12,43.53Zm-2.41,1.8A.28.28,0,0,1,46,45a14.28,14.28,0,0,1,5.39,0,.3.3,0,0,1,.26.28c0,.46.05.9.05,1.36a.36.36,0,0,1-.13.26.32.32,0,0,1-.26.05,12.73,12.73,0,0,0-5.21,0,.3.3,0,0,1-.26-.05.32.32,0,0,1-.13-.26A11.92,11.92,0,0,1,45.71,45.32Zm1,4.49a2.73,2.73,0,0,1,.85-.64.81.81,0,0,1,.69,0,.4.4,0,0,1,.18.44h0a1.09,1.09,0,0,1-.69.87,1.74,1.74,0,0,1-1,0,3,3,0,0,1-.51-.18A4.61,4.61,0,0,0,46.68,49.82Zm1.52-1.18a.46.46,0,1,1,.92,0h0a.48.48,0,0,0-.23.1,1.42,1.42,0,0,0-.21.15l-.18-.15a1.09,1.09,0,0,1-.31-.1Zm.44,1.64a1.6,1.6,0,0,0,.23.31.55.55,0,0,1-.46,0A1.21,1.21,0,0,0,48.64,50.28Zm.26-.67a.38.38,0,0,1,.21-.44.61.61,0,0,1,.31-.08,1.14,1.14,0,0,1,.39.08,2.73,2.73,0,0,1,.85.64,4.4,4.4,0,0,0,.51.46,2.35,2.35,0,0,1-1.54.18A1,1,0,0,1,48.89,49.61Zm1.64-.51a2.27,2.27,0,0,0-.59-.36,2.14,2.14,0,0,0-.39-.1.92.92,0,1,0-1.85,0c-.1,0-.23.05-.39.1a2.57,2.57,0,0,0-.59.36A1.62,1.62,0,0,1,46.3,48V47.4a11.8,11.8,0,0,1,4.65,0V48A1.41,1.41,0,0,1,50.54,49.1Zm.72,3.26a3.32,3.32,0,0,1-2.62,1.23A3.41,3.41,0,0,1,46,52.36a3.36,3.36,0,0,1-.72-2.8l.41-2.13a.28.28,0,0,0,.13,0V48a2.11,2.11,0,0,0,.56,1.44l-.05.05c-.31.31-.49.49-.74.49a.26.26,0,0,0-.23.15.23.23,0,0,0,.08.26,3.09,3.09,0,0,0,1.8.62,1.55,1.55,0,0,0,.62-.1s.08,0,.13-.05a1,1,0,0,0,1.28,0l.13.05A1.73,1.73,0,0,0,50,51a3.29,3.29,0,0,0,1.8-.62.25.25,0,0,0,.08-.26.22.22,0,0,0-.23-.15c-.28,0-.46-.18-.74-.49l-.05-.05A2.11,2.11,0,0,0,51.43,48v-.54a1.11,1.11,0,0,0,.13,0L52,49.56A3.29,3.29,0,0,1,51.25,52.36ZM52,47.07a.72.72,0,0,0,.1-.39V46.3a.82.82,0,0,1,.36-.08.82.82,0,1,1,0,1.64,1.29,1.29,0,0,1-.31-.05Z"/><path class="cls-1" d="M51.2,45.73A.25.25,0,0,0,51,46l0,.67a.23.23,0,0,0,.23.23h0a.25.25,0,0,0,.23-.26l0-.67A.22.22,0,0,0,51.2,45.73Z"/><path class="cls-1" d="M50.95,45.45a.23.23,0,0,0,.23.23h0a.25.25,0,0,0,.23-.26V45.3a.24.24,0,1,0-.49,0Z"/><path class="cls-1" d="M28.68,78.06a.18.18,0,0,0-.18.18v.28a.18.18,0,1,0,.36,0v-.28A.22.22,0,0,0,28.68,78.06Z"/><path class="cls-1" d="M30.69,78.06a.18.18,0,0,0-.18.18v.28a.18.18,0,1,0,.36,0v-.28A.18.18,0,0,0,30.69,78.06Z"/><path class="cls-1" d="M33.36,77.73a.92.92,0,0,0-.62-.87,1.86,1.86,0,0,0-.67-1.41A2.31,2.31,0,0,0,30.53,75a1.5,1.5,0,0,0-.49-.08h-.72A1.68,1.68,0,0,0,27.76,76h-.08a.58.58,0,0,0-.46.54c0,.33,0,.67,0,1a.52.52,0,0,0,.08.28l-.33,1.72a2.8,2.8,0,1,0,5.5,0l-.15-.85.15,0A1,1,0,0,0,33.36,77.73Zm-1-.92-.23,0a1.7,1.7,0,0,0,0-.36.6.6,0,0,0-.46-.54h-.08a1.63,1.63,0,0,0-.36-.56,1.83,1.83,0,0,1,.59.31A1.47,1.47,0,0,1,32.38,76.81Zm-3.06-1.59h.74a1.32,1.32,0,0,1,1.16.67,10,10,0,0,0-3,0A1.25,1.25,0,0,1,29.32,75.21ZM27.58,76.5a.22.22,0,0,1,.18-.21,10.41,10.41,0,0,1,3.85,0,.22.22,0,0,1,.18.21c0,.33,0,.64,0,1a.23.23,0,0,1-.08.18.24.24,0,0,1-.18.05,9.22,9.22,0,0,0-3.75,0,.16.16,0,0,1-.18-.05.23.23,0,0,1-.08-.18C27.55,77.17,27.55,76.83,27.58,76.5Zm.69,3.24a1.63,1.63,0,0,1,.62-.46.54.54,0,0,1,.49,0,.28.28,0,0,1,.13.31h0a.74.74,0,0,1-.49.62,1.23,1.23,0,0,1-.74,0,1.48,1.48,0,0,1-.36-.13A1.47,1.47,0,0,0,28.27,79.73Zm1.08-.82a.33.33,0,0,1,.67,0h0l-.18.08a.68.68,0,0,0-.15.13.45.45,0,0,0-.13-.1.52.52,0,0,0-.21-.1Zm.33,1.16.15.23a.48.48,0,0,1-.31,0Zm.18-.49a.28.28,0,0,1,.13-.31.6.6,0,0,1,.21-.05,1.32,1.32,0,0,1,.28.05,1.85,1.85,0,0,1,.62.46,2.4,2.4,0,0,0,.39.33,3.11,3.11,0,0,1-.36.13,1.23,1.23,0,0,1-.74,0A.72.72,0,0,1,29.86,79.58ZM31,79.22a1.23,1.23,0,0,0-.44-.26,1.16,1.16,0,0,0-.28-.08.68.68,0,0,0-.67-.67.66.66,0,0,0-.67.67.67.67,0,0,0-.28.08,1.78,1.78,0,0,0-.44.26,1.1,1.1,0,0,1-.31-.8V78a8.12,8.12,0,0,1,3.34,0v.44A.9.9,0,0,1,31,79.22Zm.51,2.34a2.43,2.43,0,0,1-4.26-2L27.58,78l.1,0v.39a1.53,1.53,0,0,0,.41,1l-.05.05c-.21.23-.33.33-.54.33a.16.16,0,0,0-.15.13.15.15,0,0,0,.05.18,2.21,2.21,0,0,0,1.28.44,1.45,1.45,0,0,0,.46-.08l.08,0a.77.77,0,0,0,.46.15.72.72,0,0,0,.46-.15.09.09,0,0,0,.08,0,1.24,1.24,0,0,0,.46.08A2.4,2.4,0,0,0,32,80.12a.17.17,0,0,0,.05-.18.16.16,0,0,0-.15-.13c-.21,0-.33-.13-.54-.33l-.05-.05a1.53,1.53,0,0,0,.41-1V78l.1,0,.28,1.54A2.32,2.32,0,0,1,31.56,81.56Zm.54-3.8a.52.52,0,0,0,.08-.28v-.28a.76.76,0,0,1,.26-.05.59.59,0,1,1,0,1.18.75.75,0,0,1-.23-.05Z"/><path class="cls-1" d="M31.53,76.81c-.1,0-.15.08-.15.18l0,.49c0,.1.08.15.18.15h0c.1,0,.15-.08.15-.18l0-.49C31.71,76.86,31.64,76.81,31.53,76.81Z"/><path class="cls-1" d="M31.35,76.6c0,.1.08.15.18.15h0c.1,0,.15-.08.15-.18v-.1c0-.1-.08-.15-.18-.15s-.15.08-.15.18Z"/><path class="cls-1" d="M6.68,161.32a.18.18,0,0,0-.18.18v.28a.18.18,0,1,0,.36,0v-.28A.18.18,0,0,0,6.68,161.32Z"/><path class="cls-1" d="M8.7,161.32a.18.18,0,0,0-.18.18v.28a.18.18,0,1,0,.36,0v-.28A.22.22,0,0,0,8.7,161.32Z"/><path class="cls-1" d="M11.35,161a.92.92,0,0,0-.62-.87,1.86,1.86,0,0,0-.67-1.41,2.31,2.31,0,0,0-1.54-.49,1.5,1.5,0,0,0-.49-.08H7.29a1.68,1.68,0,0,0-1.57,1.08H5.65a.58.58,0,0,0-.46.54c0,.33,0,.67,0,1a.52.52,0,0,0,.08.28l-.33,1.72a2.8,2.8,0,1,0,5.5,0l-.15-.85.15,0A1,1,0,0,0,11.35,161Zm-1-1-.23,0a1.7,1.7,0,0,0,0-.36.6.6,0,0,0-.46-.54H9.6a1.63,1.63,0,0,0-.36-.56,1.83,1.83,0,0,1,.59.31A1.71,1.71,0,0,1,10.4,160Zm-3.08-1.57h.74a1.32,1.32,0,0,1,1.16.67,10,10,0,0,0-3,0A1.25,1.25,0,0,1,7.32,158.47Zm-1.75,1.28a.22.22,0,0,1,.18-.21,9.78,9.78,0,0,1,1.93-.18,9.78,9.78,0,0,1,1.93.18.22.22,0,0,1,.18.21c0,.33,0,.64,0,1a.23.23,0,0,1-.08.18.24.24,0,0,1-.18.05,9.22,9.22,0,0,0-3.75,0,.16.16,0,0,1-.18-.05.23.23,0,0,1-.08-.18C5.55,160.39,5.55,160.08,5.57,159.75ZM6.29,163a1.63,1.63,0,0,1,.62-.46.54.54,0,0,1,.49,0,.28.28,0,0,1,.13.31h0a.74.74,0,0,1-.49.62,1.23,1.23,0,0,1-.74,0,1.48,1.48,0,0,1-.36-.13A4,4,0,0,0,6.29,163Zm1.08-.85a.33.33,0,0,1,.67,0H8l-.18.08a.68.68,0,0,0-.15.13.45.45,0,0,0-.13-.1.77.77,0,0,0-.21-.1Zm.31,1.18.15.23a.48.48,0,0,1-.31,0Zm.18-.49a.28.28,0,0,1,.13-.31.6.6,0,0,1,.21-.05,1.32,1.32,0,0,1,.28.05,1.85,1.85,0,0,1,.62.46,2.4,2.4,0,0,0,.39.33,3.11,3.11,0,0,1-.36.13,1.23,1.23,0,0,1-.74,0A.76.76,0,0,1,7.86,162.83Zm1.21-.36a1.23,1.23,0,0,0-.44-.26,1.16,1.16,0,0,0-.28-.08.68.68,0,0,0-.67-.67.66.66,0,0,0-.67.67.67.67,0,0,0-.28.08,1.78,1.78,0,0,0-.44.26,1.1,1.1,0,0,1-.31-.8v-.44a8.12,8.12,0,0,1,3.34,0v.44A1,1,0,0,1,9.06,162.47Zm.51,2.34a2.43,2.43,0,0,1-4.26-2l.28-1.54.1,0v.39a1.53,1.53,0,0,0,.41,1l-.05.05c-.21.23-.33.33-.54.33a.16.16,0,0,0-.15.13.15.15,0,0,0,.05.18,2.21,2.21,0,0,0,1.28.44,1.45,1.45,0,0,0,.46-.08l.08,0a.77.77,0,0,0,.46.15.72.72,0,0,0,.46-.15.09.09,0,0,0,.08,0,1.24,1.24,0,0,0,.46.08,2.4,2.4,0,0,0,1.28-.44.17.17,0,0,0,.05-.18.16.16,0,0,0-.15-.13c-.21,0-.33-.13-.54-.33l-.05-.05a1.53,1.53,0,0,0,.41-1v-.39l.1,0,.28,1.54A2.51,2.51,0,0,1,9.58,164.81Zm.51-3.8a.52.52,0,0,0,.08-.28v-.28a.76.76,0,0,1,.26-.05.59.59,0,1,1,0,1.18.75.75,0,0,1-.23-.05Z"/><path class="cls-1" d="M9.53,160c-.1,0-.15.08-.15.18l0,.49c0,.1.08.15.18.15h0c.1,0,.15-.08.15-.18l0-.49A.17.17,0,0,0,9.53,160Z"/><path class="cls-1" d="M9.35,159.85c0,.1.08.15.18.15h0c.1,0,.15-.08.15-.18v-.1c0-.1-.08-.15-.18-.15s-.15.08-.15.18Z"/><path class="cls-1" d="M9.55,34.92l-.31-.15.23-.08a.1.1,0,1,0-.08-.18L9,34.64a0,0,0,0,0,0,0l-.59-.28.8-.44.36.18a.1.1,0,1,0,.08-.18l-.23-.1.33-.18a.1.1,0,1,0-.08-.18l-.31.15.1-.23a.1.1,0,0,0-.18-.08l-.21.44v0l-.77.41-.13-.8a0,0,0,0,1,0,0l.21-.44a.1.1,0,0,0-.18-.08l-.1.23-.05-.33c0-.05-.05-.08-.1-.08s-.08.05-.08.1l.08.39-.23-.1a.1.1,0,1,0-.08.18l.36.18.13.82L7.63,34v-.05l-.13-.36a.1.1,0,0,0-.18.08l.08.23-.33-.15c-.08,0-.15,0-.18,0s0,.13.1.15l.31.15-.21.08a.1.1,0,1,0,.08.18l.36-.13h0l.51.26-.69.36L7,34.64a.1.1,0,1,0-.08.18l.23.1-.33.18a.1.1,0,1,0,.08.18l.31-.18-.1.23a.1.1,0,0,0,.18.08L7.5,35v0l.72-.39.15.87a0,0,0,0,1,0,0l-.21.44a.1.1,0,0,0,.18.08l.1-.23.05.36c0,.05.05.08.1.08s.08-.05.08-.1l-.08-.39.21.05a.1.1,0,1,0,.08-.18l-.36-.18-.13-.82.56.28v0l.13.36a.1.1,0,0,0,.18-.08l-.08-.21.28.15c.08,0,.15,0,.18,0S9.63,35,9.55,34.92Z"/><path class="cls-1" d="M12.2,113.94l-.31-.15.23-.08a.1.1,0,0,0-.08-.18l-.36.13a0,0,0,0,0,0,0l-.59-.28.8-.44.36.18a.1.1,0,0,0,.08-.18l-.23-.1.33-.18a.1.1,0,0,0-.08-.18l-.31.15.1-.23a.1.1,0,1,0-.18-.08l-.21.44v0l-.77.41-.13-.8a0,0,0,0,1,0,0l.21-.44a.1.1,0,1,0-.18-.08l-.1.23-.05-.33c0-.05-.05-.08-.1-.08s-.08.05-.08.1l.08.39-.23-.1a.1.1,0,0,0-.08.18l.36.18.13.82-.54-.26V113l-.13-.36a.1.1,0,1,0-.18.08l.08.23-.33-.15c-.08,0-.15,0-.18,0s0,.13.1.15l.31.15-.21.08a.1.1,0,0,0,.08.18l.36-.13h0l.51.26-.69.36-.36-.18a.1.1,0,0,0-.08.18l.23.1-.33.18a.1.1,0,0,0,.08.18l.26-.23-.1.23a.1.1,0,1,0,.18.08l.21-.44v0l.72-.39.15.87a0,0,0,0,1,0,0l-.21.44a.1.1,0,1,0,.18.08l.1-.23.05.36c0,.05.05.08.1.08s.08-.05.08-.1l-.08-.39.23.1a.1.1,0,0,0,.08-.18l-.36-.18-.13-.82.56.28v0l.13.36a.1.1,0,1,0,.18-.08l-.08-.21.28.15c.08,0,.15,0,.18,0S12.27,114,12.2,113.94Z"/><path class="cls-1" d="M42.5,105.87l-.31-.15.23-.08a.1.1,0,0,0-.08-.18l-.36.13a0,0,0,0,0,0,0l-.59-.28.8-.44.36.18a.1.1,0,0,0,.08-.18l-.23-.1.33-.18a.1.1,0,0,0-.08-.18l-.31.15.1-.23a.1.1,0,1,0-.18-.08l-.21.44v0l-.77.41-.13-.8a0,0,0,0,1,0,0l.21-.44a.1.1,0,1,0-.18-.08l-.1.23-.05-.33c0-.05-.05-.08-.1-.08s-.08.05-.08.1l.08.39-.23-.1a.1.1,0,0,0-.08.18l.36.18.13.82-.54-.26v-.05l-.13-.36a.1.1,0,1,0-.18.08l.08.23-.33-.15c-.08,0-.15,0-.18,0s0,.13.1.15l.31.15-.21.08a.1.1,0,0,0,.08.18l.36-.13h0l.51.26-.69.36-.36-.18a.1.1,0,0,0-.08.18l.23.1-.33.18a.1.1,0,0,0,.08.18l.31-.18-.1.23a.1.1,0,1,0,.18.08l.21-.44v0l.72-.39.15.87a0,0,0,0,1,0,0l-.21.44a.1.1,0,1,0,.18.08l.1-.23.05.36c0,.05.05.08.1.08s.08-.05.08-.1l-.08-.39.23.1a.1.1,0,0,0,.08-.18l-.36-.18-.13-.82.56.28v0l.13.36a.1.1,0,1,0,.18-.08l-.08-.21.28.15c.08,0,.15,0,.18,0A.16.16,0,0,0,42.5,105.87Z"/><path class="cls-1" d="M43,134.82l-.31-.15.23-.08a.1.1,0,0,0-.08-.18l-.36.13a0,0,0,0,0,0,0l-.59-.28.8-.44L43,134a.1.1,0,0,0,.08-.18l-.23-.1.33-.18a.1.1,0,0,0-.08-.18l-.31.15.1-.23a.1.1,0,1,0-.18-.08l-.21.44v0l-.77.41-.13-.8a0,0,0,0,1,0,0l.21-.44a.1.1,0,1,0-.18-.08l-.1.23-.05-.33c0-.05-.05-.08-.1-.08s-.08.05-.08.1l.08.39-.23-.1a.1.1,0,0,0-.08.18l.36.18.13.82-.54-.26v-.05l-.13-.36a.1.1,0,1,0-.18.08l.08.23-.33-.15c-.08,0-.15,0-.18,0s0,.13.1.15l.31.15-.21.08a.1.1,0,0,0,.08.18l.36-.13h0l.51.26-.69.36-.36-.18a.1.1,0,0,0-.08.18l.23.1-.33.18a.1.1,0,0,0,.08.18l.31-.18-.1.23a.1.1,0,1,0,.18.08l.21-.44v0l.72-.39.15.87a0,0,0,0,1,0,0l-.21.44a.1.1,0,1,0,.18.08l.1-.23.05.36c0,.05.05.08.1.08s.08-.05.08-.1l-.08-.39.23.1a.1.1,0,0,0,.08-.18l-.36-.18-.13-.82.56.28v0l.13.36a.1.1,0,1,0,.18-.08l-.08-.21.28.15c.08,0,.15,0,.18,0S43,134.84,43,134.82Z"/><path class="cls-1" d="M22.85,146.11l-.31-.15.23-.08a.1.1,0,0,0-.08-.18l-.36.13a0,0,0,0,0,0,0l-.59-.28.8-.44.36.18a.1.1,0,0,0,.08-.18l-.23-.1.33-.18a.1.1,0,0,0-.08-.18l-.31.15.1-.23a.1.1,0,1,0-.18-.08l-.21.44v0l-.77.41-.13-.8a0,0,0,0,1,0,0l.21-.44a.1.1,0,1,0-.18-.08l-.1.23-.05-.33c0-.05-.05-.08-.1-.08s-.08.05-.08.1l.08.39-.23-.1a.1.1,0,0,0-.08.18l.36.18.13.82-.54-.26v-.05l-.13-.36a.1.1,0,1,0-.18.08l.08.23-.33-.15c-.08,0-.15,0-.18,0s0,.13.1.15l.31.15-.21.08a.1.1,0,0,0,.08.18l.36-.13h0l.51.26-.69.36-.36-.18a.1.1,0,0,0-.08.18l.23.1-.33.18a.1.1,0,0,0,.08.18l.31-.18-.1.23a.1.1,0,1,0,.18.08l.21-.44v0l.72-.39.15.87a0,0,0,0,1,0,0l-.21.44a.1.1,0,1,0,.18.08l.1-.23.05.36c0,.05.05.08.1.08s.08-.05.08-.1l-.08-.39.23.1a.1.1,0,0,0,.08-.18l-.36-.18-.13-.82.56.28v0l.13.36a.1.1,0,1,0,.18-.08l-.08-.21.28.15c.08,0,.15,0,.18,0A.16.16,0,0,0,22.85,146.11Z"/><path class="cls-1" d="M9.59,179.87l-.31-.15.23-.08a.1.1,0,0,0-.08-.18l-.36.13a0,0,0,0,0,0,0l-.59-.28.8-.44.36.18a.1.1,0,0,0,.08-.18l-.23-.1.33-.18a.1.1,0,0,0-.08-.18l-.31.15.1-.23a.1.1,0,1,0-.18-.08l-.21.44v0l-.77.41-.13-.8a0,0,0,0,1,0,0l.21-.44a.1.1,0,1,0-.18-.08l-.1.23-.05-.33c0-.05-.05-.08-.1-.08s-.08.05-.08.1l.08.39-.23-.1a.1.1,0,0,0-.08.18l.36.18.13.82-.54-.26v-.05l-.13-.36a.1.1,0,1,0-.18.08l.08.23-.33-.15c-.08,0-.15,0-.18,0s0,.13.1.15l.31.15-.21.08a.1.1,0,0,0,.08.18l.36-.13h0l.51.26-.69.36L7,179.59a.1.1,0,0,0-.08.18l.23.1-.33.18a.1.1,0,0,0,.08.18l.31-.18-.1.23a.1.1,0,1,0,.18.08l.21-.44v0l.72-.39.15.87a0,0,0,0,1,0,0l-.21.44a.1.1,0,1,0,.18.08l.1-.23.05.36c0,.05.05.08.1.08s.08-.05.08-.1l-.08-.39.23.1a.1.1,0,0,0,.08-.18l-.36-.18-.13-.82.56.28v0l.13.36a.1.1,0,1,0,.18-.08l-.08-.21.28.15c.08,0,.15,0,.18,0S9.67,179.92,9.59,179.87Z"/><path class="cls-1" d="M47.4,159l-.31-.15.23-.08a.1.1,0,0,0-.08-.18l-.36.13a0,0,0,0,0,0,0l-.59-.28.8-.44.36.18a.1.1,0,0,0,.08-.18l-.23-.1.33-.18a.1.1,0,0,0-.08-.18l-.31.15.1-.23a.1.1,0,1,0-.18-.08l-.21.44v0l-.77.41-.13-.8a0,0,0,0,1,0,0l.21-.44a.1.1,0,1,0-.18-.08l-.1.23-.05-.33c0-.05-.05-.08-.1-.08s-.08.05-.08.1l.08.39-.23-.1a.1.1,0,0,0-.08.18l.36.18.13.82-.54-.26v-.05l-.13-.36a.1.1,0,1,0-.18.08l.08.23-.33-.15c-.08,0-.15,0-.18,0s0,.13.1.15l.31.15-.21.08a.1.1,0,0,0,.08.18l.36-.13h0l.51.26-.69.36-.36-.18a.1.1,0,0,0-.08.18l.23.1-.33.18a.1.1,0,0,0,.08.18l.31-.18-.1.23a.1.1,0,1,0,.18.08l.21-.44v0l.72-.39.15.87a0,0,0,0,1,0,0L46,160a.1.1,0,1,0,.18.08l.1-.23.05.36c0,.05.05.08.1.08s.08-.05.08-.1l-.08-.39.23.1a.1.1,0,0,0,.08-.18l-.36-.18-.13-.82.56.28v0l.13.36a.1.1,0,1,0,.18-.08l-.08-.21.28.15c.08,0,.15,0,.18,0A.16.16,0,0,0,47.4,159Z"/><path class="cls-1" d="M66.52,70.71l-.31-.15.23-.08a.1.1,0,0,0-.08-.18l-.36.13a0,0,0,0,0,0,0l-.59-.28.8-.44.36.18a.1.1,0,0,0,.08-.18l-.23-.1.33-.18a.1.1,0,0,0-.08-.18l-.31.15.1-.23a.1.1,0,1,0-.18-.08l-.21.44v0l-.77.41-.13-.8a0,0,0,0,1,0,0l.21-.44a.1.1,0,1,0-.18-.08l-.1.23-.05-.33c0-.05-.05-.08-.1-.08s-.08.05-.08.1L65,69l-.23-.1a.1.1,0,0,0-.08.18l.36.18.13.82-.54-.26v-.05l-.13-.36a.1.1,0,1,0-.18.08l.08.23L64,69.53c-.08,0-.15,0-.18,0s0,.13.1.15l.31.15-.21.08a.1.1,0,0,0,.08.18L64.5,70h0l.51.26-.69.36L64,70.43a.1.1,0,0,0-.08.18l.23.1-.33.18a.1.1,0,0,0,.08.18l.31-.18-.1.23a.1.1,0,1,0,.18.08l.21-.44v0l.72-.39.15.87a0,0,0,0,1,0,0l-.21.44a.1.1,0,1,0,.18.08l.1-.23.05.36c0,.05.05.08.1.08s.08-.05.08-.1l-.08-.39.23.1a.1.1,0,0,0,.08-.18l-.36-.18-.13-.82.56.28v0l.13.36a.1.1,0,1,0,.18-.08l-.08-.21.28.15c.08,0,.15,0,.18,0A.19.19,0,0,0,66.52,70.71Z"/><path class="cls-1" d="M5.15,20.43l-.67-.36-.36-.67a.17.17,0,0,0-.28,0l-.36.67-.67.36a.15.15,0,0,0,0,.26l.67.36.36.67a.15.15,0,0,0,.26,0L4.46,21l.67-.36a.14.14,0,0,0,.08-.13A.09.09,0,0,0,5.15,20.43Zm-.85.39s-.05,0-.05.05L4,21.33l-.26-.46s0-.05-.05-.05l-.46-.26.46-.26s.05,0,.05-.05L4,19.79l.26.46s0,.05.05.05l.46.26Z"/><path class="cls-1" d="M40.93,69.44l-.67-.36-.36-.67a.17.17,0,0,0-.28,0l-.36.67-.67.36a.15.15,0,0,0,0,.26l.67.36.36.67a.15.15,0,0,0,.26,0l.36-.67.67-.36a.14.14,0,0,0,.08-.13A.09.09,0,0,0,40.93,69.44Zm-.85.39s-.05,0-.05.05l-.26.46-.26-.46s0-.05-.05-.05L39,69.56l.46-.26s.05,0,.05-.05l.26-.46.26.46s0,.05.05.05l.46.26Z"/><path class="cls-1" d="M25,94.7l-.67-.36L24,93.68a.17.17,0,0,0-.28,0l-.36.67-.67.36a.15.15,0,0,0,0,.26l.67.36.36.67A.15.15,0,0,0,24,96l.36-.67L25,95a.14.14,0,0,0,.08-.13A.09.09,0,0,0,25,94.7Zm-.85.39s-.05,0-.05.05l-.26.46-.26-.46s0-.05-.05-.05l-.46-.26.46-.26s.05,0,.05-.05l.26-.46.26.46s0,.05.05.05l.46.26Z"/><path class="cls-1" d="M67.2,128l-.67-.36-.36-.67a.17.17,0,0,0-.28,0l-.36.67-.67.36a.15.15,0,0,0,0,.26l.67.36.36.67a.15.15,0,0,0,.26,0l.36-.67.67-.36a.14.14,0,0,0,.08-.13A.09.09,0,0,0,67.2,128Zm-.85.39s-.05,0-.05.05l-.26.46-.26-.46s0-.05-.05-.05l-.46-.26.46-.26s.05,0,.05-.05l.26-.46.26.46s0,.05.05.05l.46.26Z"/><path class="cls-1" d="M2.44,79.4,1.77,79l-.36-.67a.17.17,0,0,0-.28,0L.77,79l-.64.36a.15.15,0,0,0,0,.26L.79,80l.36.67a.15.15,0,0,0,.26,0L1.77,80l.67-.36a.15.15,0,0,0,0-.26Zm-.85.39s-.05,0-.05.05l-.26.46L1,79.84s0-.05-.05-.05l-.46-.26L1,79.27s.05,0,.05-.05l.26-.46.26.46s0,.05.05.05l.46.26Z"/><path class="cls-1" d="M19.59,56.85l-.67-.36-.36-.67a.17.17,0,0,0-.28,0l-.36.67-.67.36a.15.15,0,0,0,0,.26l.67.36.36.67a.15.15,0,0,0,.26,0l.36-.67.67-.36a.14.14,0,0,0,.08-.13A.09.09,0,0,0,19.59,56.85Zm-.87.39s-.05,0-.05.05l-.26.46-.26-.46s0-.05-.05-.05L17.64,57l.46-.26s.05,0,.05-.05l.26-.46.26.46s0,.05.05.05l.46.26Z"/><path class="cls-1" d="M53.23,33l-.67-.36L52.2,32a.17.17,0,0,0-.28,0l-.36.67L50.9,33a.15.15,0,0,0,0,.26l.67.36.36.67a.15.15,0,0,0,.26,0l.36-.67.67-.36a.14.14,0,0,0,.08-.13A.09.09,0,0,0,53.23,33Zm-.87.39s-.05,0-.05.05l-.26.46-.26-.46s0-.05-.05-.05l-.46-.26.46-.26s.05,0,.05-.05l.26-.46.26.46s0,.05.05.05l.46.26Z"/><path class="cls-1" d="M63.61,23.32,62.94,23l-.36-.67a.17.17,0,0,0-.28,0l-.36.67-.67.36a.15.15,0,0,0,0,.26l.67.36.36.67a.15.15,0,0,0,.26,0l.36-.67.67-.36a.14.14,0,0,0,.08-.13A.09.09,0,0,0,63.61,23.32Zm-.85.39s-.05,0-.05.05l-.26.46-.26-.46s0-.05-.05-.05l-.46-.26.46-.26s.05,0,.05-.05l.26-.46.26.46s0,.05.05.05l.46.26Z"/><path class="cls-1" d="M26.27,30.81l-.67-.36-.36-.67a.17.17,0,0,0-.28,0l-.36.67-.67.36a.15.15,0,0,0,0,.26l.67.36.36.67a.15.15,0,0,0,.26,0l.36-.67.67-.36a.14.14,0,0,0,.08-.13A.09.09,0,0,0,26.27,30.81Zm-.87.39s-.05,0-.05.05l-.26.46-.26-.46s0-.05-.05-.05l-.46-.26.46-.26s.05,0,.05-.05l.26-.46.26.46s0,.05.05.05l.46.26Z"/><path class="cls-1" d="M5.06,46.58l-.67-.36L4,45.55a.17.17,0,0,0-.28,0l-.36.67-.67.36a.15.15,0,0,0,0,.26l.67.36.36.67a.15.15,0,0,0,.26,0l.36-.67L5,46.84a.14.14,0,0,0,.08-.13A.09.09,0,0,0,5.06,46.58ZM4.21,47s-.05,0-.05.05l-.26.46L3.65,47s0-.05-.05-.05l-.46-.26.46-.26s.05,0,.05-.05l.26-.46.26.46s0,.05.05.05l.46.26Z"/><path class="cls-1" d="M54.36,1.39,53.69,1,53.33.36a.17.17,0,0,0-.28,0L52.69,1,52,1.39a.15.15,0,0,0,0,.26l.67.36.36.67a.15.15,0,0,0,.26,0L53.67,2l.67-.36a.14.14,0,0,0,.08-.13A.09.09,0,0,0,54.36,1.39Zm-.85.39s-.05,0-.05.05l-.26.46-.26-.46s0-.05-.05-.05l-.46-.26.46-.26s.05,0,.05-.05l.26-.46.26.46s0,.05.05.05l.46.26Z"/><path class="cls-1" d="M54.23,146.73l-.67-.36-.36-.67a.17.17,0,0,0-.28,0l-.36.67-.67.36a.15.15,0,0,0,0,.26l.67.36.36.67a.15.15,0,0,0,.26,0l.36-.67.67-.36a.14.14,0,0,0,.08-.13A.09.09,0,0,0,54.23,146.73Zm-.85.39s-.05,0-.05.05l-.26.46-.26-.46s0-.05-.05-.05l-.46-.26.46-.26s.05,0,.05-.05l.26-.46.26.46s0,.05.05.05l.46.26Z"/><path class="cls-1" d="M3.15,170.6l-.67-.36-.36-.67a.17.17,0,0,0-.28,0l-.36.67-.67.36a.15.15,0,0,0,0,.26l.67.36.36.67a.15.15,0,0,0,.26,0l.36-.67.67-.36a.14.14,0,0,0,.08-.13C3.26,170.67,3.21,170.62,3.15,170.6Zm-.85.39s-.05,0-.05.05L2,171.5,1.74,171s0-.05-.05-.05l-.46-.26.46-.26s.05,0,.05-.05L2,170l.26.46s0,.05.05.05l.46.26Z"/><path class="cls-1" d="M67.66,175.29l-.67-.36-.36-.67a.17.17,0,0,0-.28,0l-.36.67-.67.36a.15.15,0,0,0,0,.26l.67.36.36.67a.15.15,0,0,0,.26,0l.36-.67.67-.36a.14.14,0,0,0,.08-.13A.09.09,0,0,0,67.66,175.29Zm-.85.39s-.05,0-.05.05l-.26.46-.26-.46s0-.05-.05-.05l-.46-.26.46-.26s.05,0,.05-.05l.26-.46.26.46s0,.05.05.05l.46.26Z"/><path class="cls-1" d="M64.89,161.62l-.67-.36-.36-.67a.17.17,0,0,0-.28,0l-.36.67-.67.36a.15.15,0,0,0,0,.26l.67.36.36.67a.15.15,0,0,0,.26,0l.36-.67.67-.36a.14.14,0,0,0,.08-.13A.09.09,0,0,0,64.89,161.62ZM64,162s-.05,0-.05.05l-.26.46-.26-.46s0-.05-.05-.05l-.46-.26.46-.26s.05,0,.05-.05l.26-.46.26.46s0,.05.05.05l.46.26Z"/><path class="cls-1" d="M61.11,179.52l-2.1-.58.63-1.1a.16.16,0,0,0,0-.18.13.13,0,0,0-.18,0l-1.1.63-.58-2.1a.15.15,0,0,0-.28,0l-.58,2.1-1.1-.63a.16.16,0,0,0-.18,0,.13.13,0,0,0,0,.18l.63,1.1-2.1.58a.15.15,0,0,0,0,.28l2.1.58-.63,1.1a.16.16,0,0,0,0,.18.13.13,0,0,0,.18,0l1.09-.61.6,3.9a.15.15,0,0,0,.14.12.14.14,0,0,0,.14-.12l.26-1.77a.14.14,0,1,0-.28,0l-.12.84-.47-3.13.47-.89.47.89-.26,1.72a.14.14,0,1,0,.28,0l.25-1.56,1.09.61a.16.16,0,0,0,.18,0,.13.13,0,0,0,0-.18l-.63-1.1,2.1-.58a.15.15,0,0,0,0-.28Zm-2.75-.95.79-.44-.44.79-.72.39Zm-2.26-.44.79.44.39.72-.72-.39Zm.79,2.59-.79.44.44-.79.72-.39Zm-.47-.6-1.72-.47,1.72-.47.89.47Zm.74-1.68.47-1.72.47,1.72-.47.89Zm2,2.71-.79-.44L58,180l.72.39Zm-.32-1-.89-.47.89-.47,1.72.47Z"/><path class="cls-1" d="M64.59,95.37l-.31-.15.23-.08a.1.1,0,0,0-.08-.18l-.36.13a0,0,0,0,0,0,0l-.59-.28.8-.44.36.18a.1.1,0,0,0,.08-.18l-.23-.1.33-.18a.1.1,0,0,0-.08-.18l-.31.15.1-.23a.1.1,0,1,0-.18-.08l-.21.44v0l-.77.41-.13-.8a0,0,0,0,1,0,0l.21-.44a.1.1,0,1,0-.18-.08l-.1.23-.05-.33c0-.05-.05-.08-.1-.08s-.08.05-.08.1l.08.39-.23-.1a.1.1,0,0,0-.08.18l.36.18.13.82-.54-.26v-.05L62.53,94a.1.1,0,1,0-.18.08l.08.23-.33-.15c-.08,0-.15,0-.18,0s0,.13.1.15l.31.15-.21.08a.1.1,0,0,0,.08.18l.36-.13h0l.51.26-.69.36L62,95.09a.1.1,0,0,0-.08.18l.23.1-.33.18a.1.1,0,0,0,.08.18l.31-.18-.1.23a.1.1,0,1,0,.18.08l.21-.44v0l.72-.39.15.87a0,0,0,0,1,0,0l-.21.44a.1.1,0,1,0,.18.08l.1-.23.05.36c0,.05.05.08.1.08s.08-.05.08-.1l-.08-.39.23.1a.1.1,0,0,0,.08-.18l-.36-.18-.13-.82.56.28v0l.13.36a.1.1,0,1,0,.18-.08l-.08-.21.28.15c.08,0,.15,0,.18,0A.16.16,0,0,0,64.59,95.37Z"/></g></g></svg>